solid OpenSCAD_Model
  facet normal 1 0 0
    outer loop
      vertex 55 -1 -21
      vertex 55 0 0
      vertex 55 -1 0
    endloop
  endfacet
  facet normal 1 0 0
    outer loop
      vertex 55 0 0
      vertex 55 -1 -21
      vertex 55 0 -22
    endloop
  endfacet
  facet normal 1 0 0
    outer loop
      vertex 55 -35 -22
      vertex 55 -1 -21
      vertex 55 -35 -21
    endloop
  endfacet
  facet normal 1 0 0
    outer loop
      vertex 55 -1 -21
      vertex 55 -35 -22
      vertex 55 0 -22
    endloop
  endfacet
  facet normal 0 0 -1
    outer loop
      vertex 43.9 -10.5 -22
      vertex 55 -35 -22
      vertex 43.9 -25.5 -22
    endloop
  endfacet
  facet normal 0 0 -1
    outer loop
      vertex 55 -35 -22
      vertex 43.8855 -25.777 -22
      vertex 43.9 -25.5 -22
    endloop
  endfacet
  facet normal 0 0 -1
    outer loop
      vertex 55 -35 -22
      vertex 43.8421 -26.051 -22
      vertex 43.8855 -25.777 -22
    endloop
  endfacet
  facet normal 0 0 -1
    outer loop
      vertex 55 -35 -22
      vertex 43.7703 -26.3189 -22
      vertex 43.8421 -26.051 -22
    endloop
  endfacet
  facet normal 0 0 -1
    outer loop
      vertex 55 -35 -22
      vertex 43.6709 -26.5779 -22
      vertex 43.7703 -26.3189 -22
    endloop
  endfacet
  facet normal 0 0 -1
    outer loop
      vertex 55 -35 -22
      vertex 43.545 -26.825 -22
      vertex 43.6709 -26.5779 -22
    endloop
  endfacet
  facet normal 0 0 -1
    outer loop
      vertex 55 -35 -22
      vertex 43.3939 -27.0576 -22
      vertex 43.545 -26.825 -22
    endloop
  endfacet
  facet normal 0 0 -1
    outer loop
      vertex 55 -35 -22
      vertex 43.2193 -27.2732 -22
      vertex 43.3939 -27.0576 -22
    endloop
  endfacet
  facet normal 0 0 -1
    outer loop
      vertex 55 -35 -22
      vertex 43.0232 -27.4693 -22
      vertex 43.2193 -27.2732 -22
    endloop
  endfacet
  facet normal 0 0 -1
    outer loop
      vertex 55 -35 -22
      vertex 42.8076 -27.6439 -22
      vertex 43.0232 -27.4693 -22
    endloop
  endfacet
  facet normal 0 0 -1
    outer loop
      vertex 55 -35 -22
      vertex 42.575 -27.795 -22
      vertex 42.8076 -27.6439 -22
    endloop
  endfacet
  facet normal 0 0 -1
    outer loop
      vertex 55 -35 -22
      vertex 42.3279 -27.9209 -22
      vertex 42.575 -27.795 -22
    endloop
  endfacet
  facet normal 0 0 -1
    outer loop
      vertex 55 -35 -22
      vertex 42.0689 -28.0203 -22
      vertex 42.3279 -27.9209 -22
    endloop
  endfacet
  facet normal 0 0 -1
    outer loop
      vertex 55 -35 -22
      vertex 41.801 -28.0921 -22
      vertex 42.0689 -28.0203 -22
    endloop
  endfacet
  facet normal 0 0 -1
    outer loop
      vertex 55 -35 -22
      vertex 41.527 -28.1355 -22
      vertex 41.801 -28.0921 -22
    endloop
  endfacet
  facet normal 0 0 -1
    outer loop
      vertex 55 -35 -22
      vertex 41.25 -28.15 -22
      vertex 41.527 -28.1355 -22
    endloop
  endfacet
  facet normal 0 0 -1
    outer loop
      vertex 55 -35 -22
      vertex 40.973 -28.1355 -22
      vertex 41.25 -28.15 -22
    endloop
  endfacet
  facet normal 0 0 -1
    outer loop
      vertex 55 -35 -22
      vertex 40.699 -28.0921 -22
      vertex 40.973 -28.1355 -22
    endloop
  endfacet
  facet normal 0 0 -1
    outer loop
      vertex 55 -35 -22
      vertex 40.4311 -28.0203 -22
      vertex 40.699 -28.0921 -22
    endloop
  endfacet
  facet normal 0 0 -1
    outer loop
      vertex 14.5689 -28.0203 -22
      vertex 40.4311 -28.0203 -22
      vertex 55 -35 -22
    endloop
  endfacet
  facet normal 0 0 -1
    outer loop
      vertex 38.6 -25.5 -22
      vertex 16.4 -25.5 -22
      vertex 38.6 -10.5 -22
    endloop
  endfacet
  facet normal 0 0 -1
    outer loop
      vertex 38.6145 -25.777 -22
      vertex 16.4 -25.5 -22
      vertex 38.6 -25.5 -22
    endloop
  endfacet
  facet normal 0 0 -1
    outer loop
      vertex 16.3855 -25.777 -22
      vertex 38.6145 -25.777 -22
      vertex 38.6579 -26.051 -22
    endloop
  endfacet
  facet normal 0 0 -1
    outer loop
      vertex 16.3421 -26.051 -22
      vertex 38.6579 -26.051 -22
      vertex 38.7297 -26.3189 -22
    endloop
  endfacet
  facet normal 0 0 -1
    outer loop
      vertex 16.2703 -26.3189 -22
      vertex 38.7297 -26.3189 -22
      vertex 38.8291 -26.5779 -22
    endloop
  endfacet
  facet normal 0 0 -1
    outer loop
      vertex 16.1709 -26.5779 -22
      vertex 38.8291 -26.5779 -22
      vertex 38.955 -26.825 -22
    endloop
  endfacet
  facet normal 0 0 -1
    outer loop
      vertex 16.045 -26.825 -22
      vertex 38.955 -26.825 -22
      vertex 39.1061 -27.0576 -22
    endloop
  endfacet
  facet normal 0 0 -1
    outer loop
      vertex 15.8939 -27.0576 -22
      vertex 39.1061 -27.0576 -22
      vertex 39.2807 -27.2732 -22
    endloop
  endfacet
  facet normal 0 0 -1
    outer loop
      vertex 15.7193 -27.2732 -22
      vertex 39.2807 -27.2732 -22
      vertex 39.4768 -27.4693 -22
    endloop
  endfacet
  facet normal 0 0 -1
    outer loop
      vertex 15.5232 -27.4693 -22
      vertex 39.4768 -27.4693 -22
      vertex 39.6924 -27.6439 -22
    endloop
  endfacet
  facet normal 0 0 -1
    outer loop
      vertex 15.3076 -27.6439 -22
      vertex 39.6924 -27.6439 -22
      vertex 39.925 -27.795 -22
    endloop
  endfacet
  facet normal 0 0 -1
    outer loop
      vertex 15.075 -27.795 -22
      vertex 39.925 -27.795 -22
      vertex 40.1721 -27.9209 -22
    endloop
  endfacet
  facet normal 0 0 -1
    outer loop
      vertex 40.4311 -28.0203 -22
      vertex 14.5689 -28.0203 -22
      vertex 40.1721 -27.9209 -22
    endloop
  endfacet
  facet normal 0 0 -1
    outer loop
      vertex 38.6145 -25.777 -22
      vertex 16.3855 -25.777 -22
      vertex 16.4 -25.5 -22
    endloop
  endfacet
  facet normal 0 0 -1
    outer loop
      vertex 38.6579 -26.051 -22
      vertex 16.3421 -26.051 -22
      vertex 16.3855 -25.777 -22
    endloop
  endfacet
  facet normal 0 0 -1
    outer loop
      vertex 38.7297 -26.3189 -22
      vertex 16.2703 -26.3189 -22
      vertex 16.3421 -26.051 -22
    endloop
  endfacet
  facet normal 0 0 -1
    outer loop
      vertex 38.8291 -26.5779 -22
      vertex 16.1709 -26.5779 -22
      vertex 16.2703 -26.3189 -22
    endloop
  endfacet
  facet normal 0 0 -1
    outer loop
      vertex 38.955 -26.825 -22
      vertex 16.045 -26.825 -22
      vertex 16.1709 -26.5779 -22
    endloop
  endfacet
  facet normal 0 0 -1
    outer loop
      vertex 39.1061 -27.0576 -22
      vertex 15.8939 -27.0576 -22
      vertex 16.045 -26.825 -22
    endloop
  endfacet
  facet normal 0 0 -1
    outer loop
      vertex 39.2807 -27.2732 -22
      vertex 15.7193 -27.2732 -22
      vertex 15.8939 -27.0576 -22
    endloop
  endfacet
  facet normal 0 0 -1
    outer loop
      vertex 39.4768 -27.4693 -22
      vertex 15.5232 -27.4693 -22
      vertex 15.7193 -27.2732 -22
    endloop
  endfacet
  facet normal 0 0 -1
    outer loop
      vertex 39.6924 -27.6439 -22
      vertex 15.3076 -27.6439 -22
      vertex 15.5232 -27.4693 -22
    endloop
  endfacet
  facet normal 0 0 -1
    outer loop
      vertex 39.925 -27.795 -22
      vertex 15.075 -27.795 -22
      vertex 15.3076 -27.6439 -22
    endloop
  endfacet
  facet normal 0 0 -1
    outer loop
      vertex 40.1721 -27.9209 -22
      vertex 14.8279 -27.9209 -22
      vertex 15.075 -27.795 -22
    endloop
  endfacet
  facet normal -0 0 -1
    outer loop
      vertex 40.1721 -27.9209 -22
      vertex 14.5689 -28.0203 -22
      vertex 14.8279 -27.9209 -22
    endloop
  endfacet
  facet normal 0 0 -1
    outer loop
      vertex 0 -35 -22
      vertex 14.5689 -28.0203 -22
      vertex 55 -35 -22
    endloop
  endfacet
  facet normal 0 0 -1
    outer loop
      vertex 14.5689 -28.0203 -22
      vertex 0 -35 -22
      vertex 14.301 -28.0921 -22
    endloop
  endfacet
  facet normal 0 0 -1
    outer loop
      vertex 14.301 -28.0921 -22
      vertex 0 -35 -22
      vertex 14.027 -28.1355 -22
    endloop
  endfacet
  facet normal 0 0 -1
    outer loop
      vertex 14.027 -28.1355 -22
      vertex 0 -35 -22
      vertex 13.75 -28.15 -22
    endloop
  endfacet
  facet normal -0 0 -1
    outer loop
      vertex 13.75 -28.15 -22
      vertex 0 -35 -22
      vertex 13.473 -28.1355 -22
    endloop
  endfacet
  facet normal -0 0 -1
    outer loop
      vertex 11.1 -25.5 -22
      vertex 0 -35 -22
      vertex 11.1 -10.5 -22
    endloop
  endfacet
  facet normal -0 0 -1
    outer loop
      vertex 11.1145 -25.777 -22
      vertex 0 -35 -22
      vertex 11.1 -25.5 -22
    endloop
  endfacet
  facet normal -0 0 -1
    outer loop
      vertex 11.1579 -26.051 -22
      vertex 0 -35 -22
      vertex 11.1145 -25.777 -22
    endloop
  endfacet
  facet normal -0 0 -1
    outer loop
      vertex 11.2297 -26.3189 -22
      vertex 0 -35 -22
      vertex 11.1579 -26.051 -22
    endloop
  endfacet
  facet normal -0 0 -1
    outer loop
      vertex 11.3291 -26.5779 -22
      vertex 0 -35 -22
      vertex 11.2297 -26.3189 -22
    endloop
  endfacet
  facet normal -0 0 -1
    outer loop
      vertex 11.455 -26.825 -22
      vertex 0 -35 -22
      vertex 11.3291 -26.5779 -22
    endloop
  endfacet
  facet normal -0 0 -1
    outer loop
      vertex 11.6061 -27.0576 -22
      vertex 0 -35 -22
      vertex 11.455 -26.825 -22
    endloop
  endfacet
  facet normal -0 0 -1
    outer loop
      vertex 11.7807 -27.2732 -22
      vertex 0 -35 -22
      vertex 11.6061 -27.0576 -22
    endloop
  endfacet
  facet normal -0 0 -1
    outer loop
      vertex 11.9768 -27.4693 -22
      vertex 0 -35 -22
      vertex 11.7807 -27.2732 -22
    endloop
  endfacet
  facet normal -0 0 -1
    outer loop
      vertex 12.1924 -27.6439 -22
      vertex 0 -35 -22
      vertex 11.9768 -27.4693 -22
    endloop
  endfacet
  facet normal -0 0 -1
    outer loop
      vertex 12.425 -27.795 -22
      vertex 0 -35 -22
      vertex 12.1924 -27.6439 -22
    endloop
  endfacet
  facet normal -0 0 -1
    outer loop
      vertex 12.6721 -27.9209 -22
      vertex 0 -35 -22
      vertex 12.425 -27.795 -22
    endloop
  endfacet
  facet normal -0 0 -1
    outer loop
      vertex 12.9311 -28.0203 -22
      vertex 0 -35 -22
      vertex 12.6721 -27.9209 -22
    endloop
  endfacet
  facet normal -0 0 -1
    outer loop
      vertex 13.199 -28.0921 -22
      vertex 0 -35 -22
      vertex 12.9311 -28.0203 -22
    endloop
  endfacet
  facet normal -0 0 -1
    outer loop
      vertex 13.473 -28.1355 -22
      vertex 0 -35 -22
      vertex 13.199 -28.0921 -22
    endloop
  endfacet
  facet normal 0 0 -1
    outer loop
      vertex 55 -35 -22
      vertex 43.9 -10.5 -22
      vertex 55 0 -22
    endloop
  endfacet
  facet normal 0 0 -1
    outer loop
      vertex 43.8855 -10.223 -22
      vertex 55 0 -22
      vertex 43.9 -10.5 -22
    endloop
  endfacet
  facet normal 0 0 -1
    outer loop
      vertex 43.8421 -9.94903 -22
      vertex 55 0 -22
      vertex 43.8855 -10.223 -22
    endloop
  endfacet
  facet normal 0 0 -1
    outer loop
      vertex 43.7703 -9.68111 -22
      vertex 55 0 -22
      vertex 43.8421 -9.94903 -22
    endloop
  endfacet
  facet normal 0 0 -1
    outer loop
      vertex 43.6709 -9.42215 -22
      vertex 55 0 -22
      vertex 43.7703 -9.68111 -22
    endloop
  endfacet
  facet normal 0 0 -1
    outer loop
      vertex 43.545 -9.175 -22
      vertex 55 0 -22
      vertex 43.6709 -9.42215 -22
    endloop
  endfacet
  facet normal 0 0 -1
    outer loop
      vertex 43.3939 -8.94237 -22
      vertex 55 0 -22
      vertex 43.545 -9.175 -22
    endloop
  endfacet
  facet normal 0 0 -1
    outer loop
      vertex 43.2193 -8.7268 -22
      vertex 55 0 -22
      vertex 43.3939 -8.94237 -22
    endloop
  endfacet
  facet normal 0 0 -1
    outer loop
      vertex 43.0232 -8.53067 -22
      vertex 55 0 -22
      vertex 43.2193 -8.7268 -22
    endloop
  endfacet
  facet normal 0 0 -1
    outer loop
      vertex 42.8076 -8.35611 -22
      vertex 55 0 -22
      vertex 43.0232 -8.53067 -22
    endloop
  endfacet
  facet normal 0 0 -1
    outer loop
      vertex 42.575 -8.20503 -22
      vertex 55 0 -22
      vertex 42.8076 -8.35611 -22
    endloop
  endfacet
  facet normal 0 0 -1
    outer loop
      vertex 42.3279 -8.07911 -22
      vertex 55 0 -22
      vertex 42.575 -8.20503 -22
    endloop
  endfacet
  facet normal 0 0 -1
    outer loop
      vertex 42.0689 -7.9797 -22
      vertex 55 0 -22
      vertex 42.3279 -8.07911 -22
    endloop
  endfacet
  facet normal 0 0 -1
    outer loop
      vertex 41.801 -7.90791 -22
      vertex 55 0 -22
      vertex 42.0689 -7.9797 -22
    endloop
  endfacet
  facet normal 0 0 -1
    outer loop
      vertex 41.527 -7.86452 -22
      vertex 55 0 -22
      vertex 41.801 -7.90791 -22
    endloop
  endfacet
  facet normal 0 0 -1
    outer loop
      vertex 41.25 -7.85 -22
      vertex 55 0 -22
      vertex 41.527 -7.86452 -22
    endloop
  endfacet
  facet normal 0 0 -1
    outer loop
      vertex 40.973 -7.86452 -22
      vertex 55 0 -22
      vertex 41.25 -7.85 -22
    endloop
  endfacet
  facet normal 0 0 -1
    outer loop
      vertex 40.699 -7.90791 -22
      vertex 55 0 -22
      vertex 40.973 -7.86452 -22
    endloop
  endfacet
  facet normal 0 0 -1
    outer loop
      vertex 40.4311 -7.9797 -22
      vertex 55 0 -22
      vertex 40.699 -7.90791 -22
    endloop
  endfacet
  facet normal 0 0 -1
    outer loop
      vertex 14.5689 -7.9797 -22
      vertex 40.4311 -7.9797 -22
      vertex 40.1721 -8.07911 -22
    endloop
  endfacet
  facet normal 0 0 -1
    outer loop
      vertex 14.8279 -8.07911 -22
      vertex 40.1721 -8.07911 -22
      vertex 39.925 -8.20503 -22
    endloop
  endfacet
  facet normal 0 0 -1
    outer loop
      vertex 16.4 -10.5 -22
      vertex 38.6 -10.5 -22
      vertex 16.4 -25.5 -22
    endloop
  endfacet
  facet normal 0 0 -1
    outer loop
      vertex 38.6 -10.5 -22
      vertex 16.4 -10.5 -22
      vertex 38.6145 -10.223 -22
    endloop
  endfacet
  facet normal 0 0 -1
    outer loop
      vertex 16.3855 -10.223 -22
      vertex 38.6145 -10.223 -22
      vertex 16.4 -10.5 -22
    endloop
  endfacet
  facet normal 0 0 -1
    outer loop
      vertex 38.6145 -10.223 -22
      vertex 16.3855 -10.223 -22
      vertex 38.6579 -9.94903 -22
    endloop
  endfacet
  facet normal 0 0 -1
    outer loop
      vertex 16.3421 -9.94903 -22
      vertex 38.6579 -9.94903 -22
      vertex 16.3855 -10.223 -22
    endloop
  endfacet
  facet normal 0 0 -1
    outer loop
      vertex 38.6579 -9.94903 -22
      vertex 16.3421 -9.94903 -22
      vertex 38.7297 -9.68111 -22
    endloop
  endfacet
  facet normal 0 0 -1
    outer loop
      vertex 16.2703 -9.68111 -22
      vertex 38.7297 -9.68111 -22
      vertex 16.3421 -9.94903 -22
    endloop
  endfacet
  facet normal 0 0 -1
    outer loop
      vertex 38.7297 -9.68111 -22
      vertex 16.2703 -9.68111 -22
      vertex 38.8291 -9.42215 -22
    endloop
  endfacet
  facet normal 0 0 -1
    outer loop
      vertex 16.1709 -9.42215 -22
      vertex 38.8291 -9.42215 -22
      vertex 16.2703 -9.68111 -22
    endloop
  endfacet
  facet normal 0 0 -1
    outer loop
      vertex 38.8291 -9.42215 -22
      vertex 16.1709 -9.42215 -22
      vertex 38.955 -9.175 -22
    endloop
  endfacet
  facet normal 0 0 -1
    outer loop
      vertex 16.045 -9.175 -22
      vertex 38.955 -9.175 -22
      vertex 16.1709 -9.42215 -22
    endloop
  endfacet
  facet normal 0 0 -1
    outer loop
      vertex 38.955 -9.175 -22
      vertex 16.045 -9.175 -22
      vertex 39.1061 -8.94237 -22
    endloop
  endfacet
  facet normal 0 0 -1
    outer loop
      vertex 15.8939 -8.94237 -22
      vertex 39.1061 -8.94237 -22
      vertex 16.045 -9.175 -22
    endloop
  endfacet
  facet normal 0 0 -1
    outer loop
      vertex 39.1061 -8.94237 -22
      vertex 15.8939 -8.94237 -22
      vertex 39.2807 -8.7268 -22
    endloop
  endfacet
  facet normal 0 0 -1
    outer loop
      vertex 15.7193 -8.7268 -22
      vertex 39.2807 -8.7268 -22
      vertex 15.8939 -8.94237 -22
    endloop
  endfacet
  facet normal 0 0 -1
    outer loop
      vertex 39.2807 -8.7268 -22
      vertex 15.7193 -8.7268 -22
      vertex 39.4768 -8.53067 -22
    endloop
  endfacet
  facet normal 0 0 -1
    outer loop
      vertex 15.5232 -8.53067 -22
      vertex 39.4768 -8.53067 -22
      vertex 15.7193 -8.7268 -22
    endloop
  endfacet
  facet normal 0 0 -1
    outer loop
      vertex 39.4768 -8.53067 -22
      vertex 15.5232 -8.53067 -22
      vertex 39.6924 -8.35611 -22
    endloop
  endfacet
  facet normal 0 0 -1
    outer loop
      vertex 15.3076 -8.35611 -22
      vertex 39.6924 -8.35611 -22
      vertex 15.5232 -8.53067 -22
    endloop
  endfacet
  facet normal 0 0 -1
    outer loop
      vertex 39.6924 -8.35611 -22
      vertex 15.3076 -8.35611 -22
      vertex 39.925 -8.20503 -22
    endloop
  endfacet
  facet normal 0 0 -1
    outer loop
      vertex 15.075 -8.20503 -22
      vertex 39.925 -8.20503 -22
      vertex 15.3076 -8.35611 -22
    endloop
  endfacet
  facet normal 0 0 -1
    outer loop
      vertex 14.8279 -8.07911 -22
      vertex 39.925 -8.20503 -22
      vertex 15.075 -8.20503 -22
    endloop
  endfacet
  facet normal 0 0 -1
    outer loop
      vertex 40.1721 -8.07911 -22
      vertex 14.8279 -8.07911 -22
      vertex 14.5689 -7.9797 -22
    endloop
  endfacet
  facet normal 0 0 -1
    outer loop
      vertex 40.4311 -7.9797 -22
      vertex 14.5689 -7.9797 -22
      vertex 55 0 -22
    endloop
  endfacet
  facet normal 0 0 -1
    outer loop
      vertex 0 0 -22
      vertex 14.5689 -7.9797 -22
      vertex 14.301 -7.90791 -22
    endloop
  endfacet
  facet normal 0 0 -1
    outer loop
      vertex 0 0 -22
      vertex 14.301 -7.90791 -22
      vertex 14.027 -7.86452 -22
    endloop
  endfacet
  facet normal 0 0 -1
    outer loop
      vertex 0 0 -22
      vertex 14.027 -7.86452 -22
      vertex 13.75 -7.85 -22
    endloop
  endfacet
  facet normal 0 0 -1
    outer loop
      vertex 0 0 -22
      vertex 13.75 -7.85 -22
      vertex 13.473 -7.86452 -22
    endloop
  endfacet
  facet normal 0 0 -1
    outer loop
      vertex 0 0 -22
      vertex 13.473 -7.86452 -22
      vertex 13.199 -7.90791 -22
    endloop
  endfacet
  facet normal 0 0 -1
    outer loop
      vertex 0 0 -22
      vertex 11.1 -10.5 -22
      vertex 0 -35 -22
    endloop
  endfacet
  facet normal 0 0 -1
    outer loop
      vertex 11.1 -10.5 -22
      vertex 0 0 -22
      vertex 11.1145 -10.223 -22
    endloop
  endfacet
  facet normal 0 0 -1
    outer loop
      vertex 11.1145 -10.223 -22
      vertex 0 0 -22
      vertex 11.1579 -9.94903 -22
    endloop
  endfacet
  facet normal 0 0 -1
    outer loop
      vertex 11.1579 -9.94903 -22
      vertex 0 0 -22
      vertex 11.2297 -9.68111 -22
    endloop
  endfacet
  facet normal 0 0 -1
    outer loop
      vertex 14.5689 -7.9797 -22
      vertex 0 0 -22
      vertex 55 0 -22
    endloop
  endfacet
  facet normal 0 0 -1
    outer loop
      vertex 12.9311 -7.9797 -22
      vertex 0 0 -22
      vertex 13.199 -7.90791 -22
    endloop
  endfacet
  facet normal 0 0 -1
    outer loop
      vertex 12.6721 -8.07911 -22
      vertex 0 0 -22
      vertex 12.9311 -7.9797 -22
    endloop
  endfacet
  facet normal 0 0 -1
    outer loop
      vertex 12.425 -8.20503 -22
      vertex 0 0 -22
      vertex 12.6721 -8.07911 -22
    endloop
  endfacet
  facet normal 0 0 -1
    outer loop
      vertex 12.1924 -8.35611 -22
      vertex 0 0 -22
      vertex 12.425 -8.20503 -22
    endloop
  endfacet
  facet normal 0 0 -1
    outer loop
      vertex 11.9768 -8.53067 -22
      vertex 0 0 -22
      vertex 12.1924 -8.35611 -22
    endloop
  endfacet
  facet normal 0 0 -1
    outer loop
      vertex 11.7807 -8.7268 -22
      vertex 0 0 -22
      vertex 11.9768 -8.53067 -22
    endloop
  endfacet
  facet normal 0 0 -1
    outer loop
      vertex 11.6061 -8.94237 -22
      vertex 0 0 -22
      vertex 11.7807 -8.7268 -22
    endloop
  endfacet
  facet normal 0 0 -1
    outer loop
      vertex 11.455 -9.175 -22
      vertex 0 0 -22
      vertex 11.6061 -8.94237 -22
    endloop
  endfacet
  facet normal 0 0 -1
    outer loop
      vertex 11.3291 -9.42215 -22
      vertex 0 0 -22
      vertex 11.455 -9.175 -22
    endloop
  endfacet
  facet normal 0 0 -1
    outer loop
      vertex 11.2297 -9.68111 -22
      vertex 0 0 -22
      vertex 11.3291 -9.42215 -22
    endloop
  endfacet
  facet normal 0 0 1
    outer loop
      vertex 27 -1 -21
      vertex 16.4 -10.5 -21
      vertex 27 -35 -21
    endloop
  endfacet
  facet normal 0 0 1
    outer loop
      vertex 27 -1 -21
      vertex 16.3855 -10.223 -21
      vertex 16.4 -10.5 -21
    endloop
  endfacet
  facet normal 0 0 1
    outer loop
      vertex 27 -1 -21
      vertex 16.3421 -9.94903 -21
      vertex 16.3855 -10.223 -21
    endloop
  endfacet
  facet normal 0 0 1
    outer loop
      vertex 27 -1 -21
      vertex 16.2703 -9.68111 -21
      vertex 16.3421 -9.94903 -21
    endloop
  endfacet
  facet normal 0 0 1
    outer loop
      vertex 27 -1 -21
      vertex 16.1709 -9.42215 -21
      vertex 16.2703 -9.68111 -21
    endloop
  endfacet
  facet normal 0 0 1
    outer loop
      vertex 27 -1 -21
      vertex 16.045 -9.175 -21
      vertex 16.1709 -9.42215 -21
    endloop
  endfacet
  facet normal 0 0 1
    outer loop
      vertex 27 -1 -21
      vertex 15.8939 -8.94237 -21
      vertex 16.045 -9.175 -21
    endloop
  endfacet
  facet normal 0 0 1
    outer loop
      vertex 27 -1 -21
      vertex 15.7193 -8.7268 -21
      vertex 15.8939 -8.94237 -21
    endloop
  endfacet
  facet normal 0 0 1
    outer loop
      vertex 27 -1 -21
      vertex 15.5232 -8.53067 -21
      vertex 15.7193 -8.7268 -21
    endloop
  endfacet
  facet normal 0 0 1
    outer loop
      vertex 27 -1 -21
      vertex 15.3076 -8.35611 -21
      vertex 15.5232 -8.53067 -21
    endloop
  endfacet
  facet normal 0 0 1
    outer loop
      vertex 27 -1 -21
      vertex 15.075 -8.20503 -21
      vertex 15.3076 -8.35611 -21
    endloop
  endfacet
  facet normal 0 0 1
    outer loop
      vertex 27 -1 -21
      vertex 14.8279 -8.07911 -21
      vertex 15.075 -8.20503 -21
    endloop
  endfacet
  facet normal 0 0 1
    outer loop
      vertex 27 -1 -21
      vertex 14.5689 -7.9797 -21
      vertex 14.8279 -8.07911 -21
    endloop
  endfacet
  facet normal 0 0 1
    outer loop
      vertex 27 -1 -21
      vertex 14.301 -7.90791 -21
      vertex 14.5689 -7.9797 -21
    endloop
  endfacet
  facet normal 0 0 1
    outer loop
      vertex 27 -1 -21
      vertex 14.027 -7.86452 -21
      vertex 14.301 -7.90791 -21
    endloop
  endfacet
  facet normal 0 0 1
    outer loop
      vertex 27 -1 -21
      vertex 13.75 -7.85 -21
      vertex 14.027 -7.86452 -21
    endloop
  endfacet
  facet normal -0 0 1
    outer loop
      vertex 0 -1 -21
      vertex 13.75 -7.85 -21
      vertex 27 -1 -21
    endloop
  endfacet
  facet normal 0 0 1
    outer loop
      vertex 13.75 -7.85 -21
      vertex 0 -1 -21
      vertex 13.473 -7.86452 -21
    endloop
  endfacet
  facet normal 0 0 1
    outer loop
      vertex 13.473 -7.86452 -21
      vertex 0 -1 -21
      vertex 13.199 -7.90791 -21
    endloop
  endfacet
  facet normal 0 0 1
    outer loop
      vertex 13.199 -7.90791 -21
      vertex 0 -1 -21
      vertex 12.9311 -7.9797 -21
    endloop
  endfacet
  facet normal 0 0 1
    outer loop
      vertex 11.1 -10.5 -21
      vertex 0 -1 -21
      vertex 11.1 -25.5 -21
    endloop
  endfacet
  facet normal 0 0 1
    outer loop
      vertex 11.1145 -10.223 -21
      vertex 0 -1 -21
      vertex 11.1 -10.5 -21
    endloop
  endfacet
  facet normal 0 0 1
    outer loop
      vertex 11.1579 -9.94903 -21
      vertex 0 -1 -21
      vertex 11.1145 -10.223 -21
    endloop
  endfacet
  facet normal 0 0 1
    outer loop
      vertex 11.2297 -9.68111 -21
      vertex 0 -1 -21
      vertex 11.1579 -9.94903 -21
    endloop
  endfacet
  facet normal 0 0 1
    outer loop
      vertex 11.3291 -9.42215 -21
      vertex 0 -1 -21
      vertex 11.2297 -9.68111 -21
    endloop
  endfacet
  facet normal 0 0 1
    outer loop
      vertex 11.455 -9.175 -21
      vertex 0 -1 -21
      vertex 11.3291 -9.42215 -21
    endloop
  endfacet
  facet normal 0 0 1
    outer loop
      vertex 11.6061 -8.94237 -21
      vertex 0 -1 -21
      vertex 11.455 -9.175 -21
    endloop
  endfacet
  facet normal 0 0 1
    outer loop
      vertex 11.7807 -8.7268 -21
      vertex 0 -1 -21
      vertex 11.6061 -8.94237 -21
    endloop
  endfacet
  facet normal 0 0 1
    outer loop
      vertex 11.9768 -8.53067 -21
      vertex 0 -1 -21
      vertex 11.7807 -8.7268 -21
    endloop
  endfacet
  facet normal 0 0 1
    outer loop
      vertex 12.1924 -8.35611 -21
      vertex 0 -1 -21
      vertex 11.9768 -8.53067 -21
    endloop
  endfacet
  facet normal 0 0 1
    outer loop
      vertex 12.425 -8.20503 -21
      vertex 0 -1 -21
      vertex 12.1924 -8.35611 -21
    endloop
  endfacet
  facet normal 0 0 1
    outer loop
      vertex 12.6721 -8.07911 -21
      vertex 0 -1 -21
      vertex 12.425 -8.20503 -21
    endloop
  endfacet
  facet normal 0 0 1
    outer loop
      vertex 12.9311 -7.9797 -21
      vertex 0 -1 -21
      vertex 12.6721 -8.07911 -21
    endloop
  endfacet
  facet normal -0 0 1
    outer loop
      vertex 16.4 -25.5 -21
      vertex 27 -35 -21
      vertex 16.4 -10.5 -21
    endloop
  endfacet
  facet normal -0 0 1
    outer loop
      vertex 16.3855 -25.777 -21
      vertex 27 -35 -21
      vertex 16.4 -25.5 -21
    endloop
  endfacet
  facet normal -0 0 1
    outer loop
      vertex 16.3421 -26.051 -21
      vertex 27 -35 -21
      vertex 16.3855 -25.777 -21
    endloop
  endfacet
  facet normal -0 0 1
    outer loop
      vertex 16.2703 -26.3189 -21
      vertex 27 -35 -21
      vertex 16.3421 -26.051 -21
    endloop
  endfacet
  facet normal -0 0 1
    outer loop
      vertex 16.1709 -26.5779 -21
      vertex 27 -35 -21
      vertex 16.2703 -26.3189 -21
    endloop
  endfacet
  facet normal -0 0 1
    outer loop
      vertex 16.045 -26.825 -21
      vertex 27 -35 -21
      vertex 16.1709 -26.5779 -21
    endloop
  endfacet
  facet normal -0 0 1
    outer loop
      vertex 15.8939 -27.0576 -21
      vertex 27 -35 -21
      vertex 16.045 -26.825 -21
    endloop
  endfacet
  facet normal -0 0 1
    outer loop
      vertex 15.7193 -27.2732 -21
      vertex 27 -35 -21
      vertex 15.8939 -27.0576 -21
    endloop
  endfacet
  facet normal -0 0 1
    outer loop
      vertex 15.5232 -27.4693 -21
      vertex 27 -35 -21
      vertex 15.7193 -27.2732 -21
    endloop
  endfacet
  facet normal -0 0 1
    outer loop
      vertex 15.3076 -27.6439 -21
      vertex 27 -35 -21
      vertex 15.5232 -27.4693 -21
    endloop
  endfacet
  facet normal -0 0 1
    outer loop
      vertex 15.075 -27.795 -21
      vertex 27 -35 -21
      vertex 15.3076 -27.6439 -21
    endloop
  endfacet
  facet normal -0 0 1
    outer loop
      vertex 14.8279 -27.9209 -21
      vertex 27 -35 -21
      vertex 15.075 -27.795 -21
    endloop
  endfacet
  facet normal -0 0 1
    outer loop
      vertex 14.5689 -28.0203 -21
      vertex 27 -35 -21
      vertex 14.8279 -27.9209 -21
    endloop
  endfacet
  facet normal -0 0 1
    outer loop
      vertex 14.301 -28.0921 -21
      vertex 27 -35 -21
      vertex 14.5689 -28.0203 -21
    endloop
  endfacet
  facet normal -0 0 1
    outer loop
      vertex 14.027 -28.1355 -21
      vertex 27 -35 -21
      vertex 14.301 -28.0921 -21
    endloop
  endfacet
  facet normal -0 0 1
    outer loop
      vertex 13.75 -28.15 -21
      vertex 27 -35 -21
      vertex 14.027 -28.1355 -21
    endloop
  endfacet
  facet normal 0 0 1
    outer loop
      vertex 0 -35 -21
      vertex 13.75 -28.15 -21
      vertex 13.473 -28.1355 -21
    endloop
  endfacet
  facet normal 0 0 1
    outer loop
      vertex 0 -35 -21
      vertex 13.473 -28.1355 -21
      vertex 13.199 -28.0921 -21
    endloop
  endfacet
  facet normal 0 0 1
    outer loop
      vertex 0 -35 -21
      vertex 13.199 -28.0921 -21
      vertex 12.9311 -28.0203 -21
    endloop
  endfacet
  facet normal 0 0 1
    outer loop
      vertex 0 -35 -21
      vertex 12.9311 -28.0203 -21
      vertex 12.6721 -27.9209 -21
    endloop
  endfacet
  facet normal 0 0 1
    outer loop
      vertex 0 -35 -21
      vertex 11.1 -25.5 -21
      vertex 0 -1 -21
    endloop
  endfacet
  facet normal 0 0 1
    outer loop
      vertex 11.1 -25.5 -21
      vertex 0 -35 -21
      vertex 11.1145 -25.777 -21
    endloop
  endfacet
  facet normal 0 0 1
    outer loop
      vertex 11.1145 -25.777 -21
      vertex 0 -35 -21
      vertex 11.1579 -26.051 -21
    endloop
  endfacet
  facet normal 0 0 1
    outer loop
      vertex 11.1579 -26.051 -21
      vertex 0 -35 -21
      vertex 11.2297 -26.3189 -21
    endloop
  endfacet
  facet normal 0 0 1
    outer loop
      vertex 13.75 -28.15 -21
      vertex 0 -35 -21
      vertex 27 -35 -21
    endloop
  endfacet
  facet normal 0 0 1
    outer loop
      vertex 12.425 -27.795 -21
      vertex 0 -35 -21
      vertex 12.6721 -27.9209 -21
    endloop
  endfacet
  facet normal 0 0 1
    outer loop
      vertex 12.1924 -27.6439 -21
      vertex 0 -35 -21
      vertex 12.425 -27.795 -21
    endloop
  endfacet
  facet normal 0 0 1
    outer loop
      vertex 11.9768 -27.4693 -21
      vertex 0 -35 -21
      vertex 12.1924 -27.6439 -21
    endloop
  endfacet
  facet normal 0 0 1
    outer loop
      vertex 11.7807 -27.2732 -21
      vertex 0 -35 -21
      vertex 11.9768 -27.4693 -21
    endloop
  endfacet
  facet normal 0 0 1
    outer loop
      vertex 11.6061 -27.0576 -21
      vertex 0 -35 -21
      vertex 11.7807 -27.2732 -21
    endloop
  endfacet
  facet normal 0 0 1
    outer loop
      vertex 11.455 -26.825 -21
      vertex 0 -35 -21
      vertex 11.6061 -27.0576 -21
    endloop
  endfacet
  facet normal 0 0 1
    outer loop
      vertex 11.3291 -26.5779 -21
      vertex 0 -35 -21
      vertex 11.455 -26.825 -21
    endloop
  endfacet
  facet normal 0 0 1
    outer loop
      vertex 11.2297 -26.3189 -21
      vertex 0 -35 -21
      vertex 11.3291 -26.5779 -21
    endloop
  endfacet
  facet normal 0 0 1
    outer loop
      vertex 55 -1 -21
      vertex 43.9 -10.5 -21
      vertex 55 -35 -21
    endloop
  endfacet
  facet normal 0 0 1
    outer loop
      vertex 55 -1 -21
      vertex 43.8855 -10.223 -21
      vertex 43.9 -10.5 -21
    endloop
  endfacet
  facet normal 0 0 1
    outer loop
      vertex 55 -1 -21
      vertex 43.8421 -9.94903 -21
      vertex 43.8855 -10.223 -21
    endloop
  endfacet
  facet normal 0 0 1
    outer loop
      vertex 55 -1 -21
      vertex 43.7703 -9.68111 -21
      vertex 43.8421 -9.94903 -21
    endloop
  endfacet
  facet normal 0 0 1
    outer loop
      vertex 55 -1 -21
      vertex 43.6709 -9.42215 -21
      vertex 43.7703 -9.68111 -21
    endloop
  endfacet
  facet normal 0 0 1
    outer loop
      vertex 55 -1 -21
      vertex 43.545 -9.175 -21
      vertex 43.6709 -9.42215 -21
    endloop
  endfacet
  facet normal 0 0 1
    outer loop
      vertex 55 -1 -21
      vertex 43.3939 -8.94237 -21
      vertex 43.545 -9.175 -21
    endloop
  endfacet
  facet normal 0 0 1
    outer loop
      vertex 55 -1 -21
      vertex 43.2193 -8.7268 -21
      vertex 43.3939 -8.94237 -21
    endloop
  endfacet
  facet normal 0 0 1
    outer loop
      vertex 55 -1 -21
      vertex 43.0232 -8.53067 -21
      vertex 43.2193 -8.7268 -21
    endloop
  endfacet
  facet normal 0 0 1
    outer loop
      vertex 55 -1 -21
      vertex 42.8076 -8.35611 -21
      vertex 43.0232 -8.53067 -21
    endloop
  endfacet
  facet normal 0 0 1
    outer loop
      vertex 55 -1 -21
      vertex 42.575 -8.20503 -21
      vertex 42.8076 -8.35611 -21
    endloop
  endfacet
  facet normal 0 0 1
    outer loop
      vertex 55 -1 -21
      vertex 42.3279 -8.07911 -21
      vertex 42.575 -8.20503 -21
    endloop
  endfacet
  facet normal 0 0 1
    outer loop
      vertex 55 -1 -21
      vertex 42.0689 -7.9797 -21
      vertex 42.3279 -8.07911 -21
    endloop
  endfacet
  facet normal 0 0 1
    outer loop
      vertex 55 -1 -21
      vertex 41.801 -7.90791 -21
      vertex 42.0689 -7.9797 -21
    endloop
  endfacet
  facet normal 0 0 1
    outer loop
      vertex 55 -1 -21
      vertex 41.527 -7.86452 -21
      vertex 41.801 -7.90791 -21
    endloop
  endfacet
  facet normal 0 0 1
    outer loop
      vertex 55 -1 -21
      vertex 41.25 -7.85 -21
      vertex 41.527 -7.86452 -21
    endloop
  endfacet
  facet normal -0 0 1
    outer loop
      vertex 28 -1 -21
      vertex 41.25 -7.85 -21
      vertex 55 -1 -21
    endloop
  endfacet
  facet normal 0 0 1
    outer loop
      vertex 41.25 -7.85 -21
      vertex 28 -1 -21
      vertex 40.973 -7.86452 -21
    endloop
  endfacet
  facet normal 0 0 1
    outer loop
      vertex 40.973 -7.86452 -21
      vertex 28 -1 -21
      vertex 40.699 -7.90791 -21
    endloop
  endfacet
  facet normal 0 0 1
    outer loop
      vertex 40.699 -7.90791 -21
      vertex 28 -1 -21
      vertex 40.4311 -7.9797 -21
    endloop
  endfacet
  facet normal 0 0 1
    outer loop
      vertex 38.6 -10.5 -21
      vertex 28 -1 -21
      vertex 38.6 -25.5 -21
    endloop
  endfacet
  facet normal 0 0 1
    outer loop
      vertex 38.6145 -10.223 -21
      vertex 28 -1 -21
      vertex 38.6 -10.5 -21
    endloop
  endfacet
  facet normal 0 0 1
    outer loop
      vertex 38.6579 -9.94903 -21
      vertex 28 -1 -21
      vertex 38.6145 -10.223 -21
    endloop
  endfacet
  facet normal 0 0 1
    outer loop
      vertex 38.7297 -9.68111 -21
      vertex 28 -1 -21
      vertex 38.6579 -9.94903 -21
    endloop
  endfacet
  facet normal 0 0 1
    outer loop
      vertex 38.8291 -9.42215 -21
      vertex 28 -1 -21
      vertex 38.7297 -9.68111 -21
    endloop
  endfacet
  facet normal 0 0 1
    outer loop
      vertex 38.955 -9.175 -21
      vertex 28 -1 -21
      vertex 38.8291 -9.42215 -21
    endloop
  endfacet
  facet normal 0 0 1
    outer loop
      vertex 39.1061 -8.94237 -21
      vertex 28 -1 -21
      vertex 38.955 -9.175 -21
    endloop
  endfacet
  facet normal 0 0 1
    outer loop
      vertex 39.2807 -8.7268 -21
      vertex 28 -1 -21
      vertex 39.1061 -8.94237 -21
    endloop
  endfacet
  facet normal 0 0 1
    outer loop
      vertex 39.4768 -8.53067 -21
      vertex 28 -1 -21
      vertex 39.2807 -8.7268 -21
    endloop
  endfacet
  facet normal 0 0 1
    outer loop
      vertex 39.6924 -8.35611 -21
      vertex 28 -1 -21
      vertex 39.4768 -8.53067 -21
    endloop
  endfacet
  facet normal 0 0 1
    outer loop
      vertex 39.925 -8.20503 -21
      vertex 28 -1 -21
      vertex 39.6924 -8.35611 -21
    endloop
  endfacet
  facet normal 0 0 1
    outer loop
      vertex 40.1721 -8.07911 -21
      vertex 28 -1 -21
      vertex 39.925 -8.20503 -21
    endloop
  endfacet
  facet normal 0 0 1
    outer loop
      vertex 40.4311 -7.9797 -21
      vertex 28 -1 -21
      vertex 40.1721 -8.07911 -21
    endloop
  endfacet
  facet normal -0 0 1
    outer loop
      vertex 43.9 -25.5 -21
      vertex 55 -35 -21
      vertex 43.9 -10.5 -21
    endloop
  endfacet
  facet normal -0 0 1
    outer loop
      vertex 43.8855 -25.777 -21
      vertex 55 -35 -21
      vertex 43.9 -25.5 -21
    endloop
  endfacet
  facet normal -0 0 1
    outer loop
      vertex 43.8421 -26.051 -21
      vertex 55 -35 -21
      vertex 43.8855 -25.777 -21
    endloop
  endfacet
  facet normal -0 0 1
    outer loop
      vertex 43.7703 -26.3189 -21
      vertex 55 -35 -21
      vertex 43.8421 -26.051 -21
    endloop
  endfacet
  facet normal -0 0 1
    outer loop
      vertex 43.6709 -26.5779 -21
      vertex 55 -35 -21
      vertex 43.7703 -26.3189 -21
    endloop
  endfacet
  facet normal -0 0 1
    outer loop
      vertex 43.545 -26.825 -21
      vertex 55 -35 -21
      vertex 43.6709 -26.5779 -21
    endloop
  endfacet
  facet normal -0 0 1
    outer loop
      vertex 43.3939 -27.0576 -21
      vertex 55 -35 -21
      vertex 43.545 -26.825 -21
    endloop
  endfacet
  facet normal -0 0 1
    outer loop
      vertex 43.2193 -27.2732 -21
      vertex 55 -35 -21
      vertex 43.3939 -27.0576 -21
    endloop
  endfacet
  facet normal -0 0 1
    outer loop
      vertex 43.0232 -27.4693 -21
      vertex 55 -35 -21
      vertex 43.2193 -27.2732 -21
    endloop
  endfacet
  facet normal -0 0 1
    outer loop
      vertex 42.8076 -27.6439 -21
      vertex 55 -35 -21
      vertex 43.0232 -27.4693 -21
    endloop
  endfacet
  facet normal -0 0 1
    outer loop
      vertex 42.575 -27.795 -21
      vertex 55 -35 -21
      vertex 42.8076 -27.6439 -21
    endloop
  endfacet
  facet normal -0 0 1
    outer loop
      vertex 42.3279 -27.9209 -21
      vertex 55 -35 -21
      vertex 42.575 -27.795 -21
    endloop
  endfacet
  facet normal -0 0 1
    outer loop
      vertex 42.0689 -28.0203 -21
      vertex 55 -35 -21
      vertex 42.3279 -27.9209 -21
    endloop
  endfacet
  facet normal -0 0 1
    outer loop
      vertex 41.801 -28.0921 -21
      vertex 55 -35 -21
      vertex 42.0689 -28.0203 -21
    endloop
  endfacet
  facet normal -0 0 1
    outer loop
      vertex 41.527 -28.1355 -21
      vertex 55 -35 -21
      vertex 41.801 -28.0921 -21
    endloop
  endfacet
  facet normal -0 0 1
    outer loop
      vertex 41.25 -28.15 -21
      vertex 55 -35 -21
      vertex 41.527 -28.1355 -21
    endloop
  endfacet
  facet normal 0 0 1
    outer loop
      vertex 28 -35 -21
      vertex 41.25 -28.15 -21
      vertex 40.973 -28.1355 -21
    endloop
  endfacet
  facet normal 0 0 1
    outer loop
      vertex 28 -35 -21
      vertex 40.973 -28.1355 -21
      vertex 40.699 -28.0921 -21
    endloop
  endfacet
  facet normal 0 0 1
    outer loop
      vertex 28 -35 -21
      vertex 40.699 -28.0921 -21
      vertex 40.4311 -28.0203 -21
    endloop
  endfacet
  facet normal 0 0 1
    outer loop
      vertex 28 -35 -21
      vertex 40.4311 -28.0203 -21
      vertex 40.1721 -27.9209 -21
    endloop
  endfacet
  facet normal 0 0 1
    outer loop
      vertex 28 -35 -21
      vertex 38.6 -25.5 -21
      vertex 28 -1 -21
    endloop
  endfacet
  facet normal 0 0 1
    outer loop
      vertex 38.6 -25.5 -21
      vertex 28 -35 -21
      vertex 38.6145 -25.777 -21
    endloop
  endfacet
  facet normal 0 0 1
    outer loop
      vertex 38.6145 -25.777 -21
      vertex 28 -35 -21
      vertex 38.6579 -26.051 -21
    endloop
  endfacet
  facet normal 0 0 1
    outer loop
      vertex 38.6579 -26.051 -21
      vertex 28 -35 -21
      vertex 38.7297 -26.3189 -21
    endloop
  endfacet
  facet normal 0 0 1
    outer loop
      vertex 41.25 -28.15 -21
      vertex 28 -35 -21
      vertex 55 -35 -21
    endloop
  endfacet
  facet normal 0 0 1
    outer loop
      vertex 39.925 -27.795 -21
      vertex 28 -35 -21
      vertex 40.1721 -27.9209 -21
    endloop
  endfacet
  facet normal 0 0 1
    outer loop
      vertex 39.6924 -27.6439 -21
      vertex 28 -35 -21
      vertex 39.925 -27.795 -21
    endloop
  endfacet
  facet normal 0 0 1
    outer loop
      vertex 39.4768 -27.4693 -21
      vertex 28 -35 -21
      vertex 39.6924 -27.6439 -21
    endloop
  endfacet
  facet normal 0 0 1
    outer loop
      vertex 39.2807 -27.2732 -21
      vertex 28 -35 -21
      vertex 39.4768 -27.4693 -21
    endloop
  endfacet
  facet normal 0 0 1
    outer loop
      vertex 39.1061 -27.0576 -21
      vertex 28 -35 -21
      vertex 39.2807 -27.2732 -21
    endloop
  endfacet
  facet normal 0 0 1
    outer loop
      vertex 38.955 -26.825 -21
      vertex 28 -35 -21
      vertex 39.1061 -27.0576 -21
    endloop
  endfacet
  facet normal 0 0 1
    outer loop
      vertex 38.8291 -26.5779 -21
      vertex 28 -35 -21
      vertex 38.955 -26.825 -21
    endloop
  endfacet
  facet normal 0 0 1
    outer loop
      vertex 38.7297 -26.3189 -21
      vertex 28 -35 -21
      vertex 38.8291 -26.5779 -21
    endloop
  endfacet
  facet normal -1 0 0
    outer loop
      vertex 0 0 -22
      vertex 0 -1 -21
      vertex 0 0 0
    endloop
  endfacet
  facet normal -1 0 0
    outer loop
      vertex 0 -35 -22
      vertex 0 -1 -21
      vertex 0 0 -22
    endloop
  endfacet
  facet normal -1 -0 0
    outer loop
      vertex 0 -1 -21
      vertex 0 -35 -22
      vertex 0 -35 -21
    endloop
  endfacet
  facet normal -1 -0 0
    outer loop
      vertex 0 0 0
      vertex 0 -1 -21
      vertex 0 -1 0
    endloop
  endfacet
  facet normal 0 -1 0
    outer loop
      vertex 0 -35 -22
      vertex 27 -35 -21
      vertex 0 -35 -21
    endloop
  endfacet
  facet normal 0 -1 -0
    outer loop
      vertex 27 -35 -21
      vertex 0 -35 -22
      vertex 28 -35 -21
    endloop
  endfacet
  facet normal 0 -1 0
    outer loop
      vertex 55 -35 -22
      vertex 28 -35 -21
      vertex 0 -35 -22
    endloop
  endfacet
  facet normal 0 -1 0
    outer loop
      vertex 28 -35 -21
      vertex 55 -35 -22
      vertex 55 -35 -21
    endloop
  endfacet
  facet normal 0 1 -0
    outer loop
      vertex 55 0 -22
      vertex 0 0 0
      vertex 55 0 0
    endloop
  endfacet
  facet normal 0 1 0
    outer loop
      vertex 0 0 0
      vertex 55 0 -22
      vertex 0 0 -22
    endloop
  endfacet
  facet normal 0 0 1
    outer loop
      vertex 55 0 0
      vertex 28 -1 0
      vertex 55 -1 0
    endloop
  endfacet
  facet normal 0 0 1
    outer loop
      vertex 55 0 0
      vertex 27 -1 0
      vertex 28 -1 0
    endloop
  endfacet
  facet normal -0 0 1
    outer loop
      vertex 0 0 0
      vertex 27 -1 0
      vertex 55 0 0
    endloop
  endfacet
  facet normal 0 0 1
    outer loop
      vertex 27 -1 0
      vertex 0 0 0
      vertex 0 -1 0
    endloop
  endfacet
  facet normal 0 -1 0
    outer loop
      vertex 0 -1 -21
      vertex 27 -1 0
      vertex 0 -1 0
    endloop
  endfacet
  facet normal 0 -1 -0
    outer loop
      vertex 27 -1 0
      vertex 0 -1 -21
      vertex 27 -1 -21
    endloop
  endfacet
  facet normal 0 -1 0
    outer loop
      vertex 28 -1 -21
      vertex 55 -1 0
      vertex 28 -1 0
    endloop
  endfacet
  facet normal 0 -1 -0
    outer loop
      vertex 55 -1 0
      vertex 28 -1 -21
      vertex 55 -1 -21
    endloop
  endfacet
  facet normal -1 0 0
    outer loop
      vertex 27 -35 -21
      vertex 27 -1 0
      vertex 27 -1 -21
    endloop
  endfacet
  facet normal 1 0 -0
    outer loop
      vertex 28 -1 -21
      vertex 28 -1 0
      vertex 28 -35 -21
    endloop
  endfacet
  facet normal 0 -0.525493 0.850798
    outer loop
      vertex 27 -1 0
      vertex 28 -35 -21
      vertex 28 -1 0
    endloop
  endfacet
  facet normal 0 -0.525493 0.850798
    outer loop
      vertex 28 -35 -21
      vertex 27 -1 0
      vertex 27 -35 -21
    endloop
  endfacet
  facet normal 0.358334 -0.933593 0
    outer loop
      vertex 12.6721 -8.07911 -22
      vertex 12.9311 -7.9797 -21
      vertex 12.6721 -8.07911 -21
    endloop
  endfacet
  facet normal 0.358334 -0.933593 0
    outer loop
      vertex 12.9311 -7.9797 -21
      vertex 12.6721 -8.07911 -22
      vertex 12.9311 -7.9797 -22
    endloop
  endfacet
  facet normal -0.777085 -0.629396 0
    outer loop
      vertex 15.8939 -8.94237 -22
      vertex 15.7193 -8.7268 -21
      vertex 15.7193 -8.7268 -22
    endloop
  endfacet
  facet normal -0.777085 -0.629396 0
    outer loop
      vertex 15.7193 -8.7268 -21
      vertex 15.8939 -8.94237 -22
      vertex 15.8939 -8.94237 -21
    endloop
  endfacet
  facet normal -0.358334 -0.933593 0
    outer loop
      vertex 14.5689 -7.9797 -22
      vertex 14.8279 -8.07911 -21
      vertex 14.5689 -7.9797 -21
    endloop
  endfacet
  facet normal -0.358334 -0.933593 -0
    outer loop
      vertex 14.8279 -8.07911 -21
      vertex 14.5689 -7.9797 -22
      vertex 14.8279 -8.07911 -22
    endloop
  endfacet
  facet normal -0.891049 -0.453907 0
    outer loop
      vertex 16.1709 -9.42215 -22
      vertex 16.045 -9.175 -21
      vertex 16.045 -9.175 -22
    endloop
  endfacet
  facet normal -0.891049 -0.453907 0
    outer loop
      vertex 16.045 -9.175 -21
      vertex 16.1709 -9.42215 -22
      vertex 16.1709 -9.42215 -21
    endloop
  endfacet
  facet normal -0.998633 -0.052275 0
    outer loop
      vertex 16.4 -10.5 -22
      vertex 16.3855 -10.223 -21
      vertex 16.3855 -10.223 -22
    endloop
  endfacet
  facet normal -0.998633 -0.052275 0
    outer loop
      vertex 16.3855 -10.223 -21
      vertex 16.4 -10.5 -22
      vertex 16.4 -10.5 -21
    endloop
  endfacet
  facet normal 0.965916 -0.258856 0
    outer loop
      vertex 11.1579 -9.94903 -21
      vertex 11.2297 -9.68111 -22
      vertex 11.2297 -9.68111 -21
    endloop
  endfacet
  facet normal 0.965916 -0.258856 0
    outer loop
      vertex 11.2297 -9.68111 -22
      vertex 11.1579 -9.94903 -21
      vertex 11.1579 -9.94903 -22
    endloop
  endfacet
  facet normal -0.933587 -0.358351 0
    outer loop
      vertex 16.2703 -9.68111 -22
      vertex 16.1709 -9.42215 -21
      vertex 16.1709 -9.42215 -22
    endloop
  endfacet
  facet normal -0.933587 -0.358351 0
    outer loop
      vertex 16.1709 -9.42215 -21
      vertex 16.2703 -9.68111 -22
      vertex 16.2703 -9.68111 -21
    endloop
  endfacet
  facet normal 0.707161 -0.707053 0
    outer loop
      vertex 11.7807 -8.7268 -21
      vertex 11.9768 -8.53067 -22
      vertex 11.9768 -8.53067 -21
    endloop
  endfacet
  facet normal 0.707161 -0.707053 0
    outer loop
      vertex 11.9768 -8.53067 -22
      vertex 11.7807 -8.7268 -21
      vertex 11.7807 -8.7268 -22
    endloop
  endfacet
  facet normal 0.777085 -0.629396 0
    outer loop
      vertex 11.6061 -8.94237 -21
      vertex 11.7807 -8.7268 -22
      vertex 11.7807 -8.7268 -21
    endloop
  endfacet
  facet normal 0.777085 -0.629396 0
    outer loop
      vertex 11.7807 -8.7268 -22
      vertex 11.6061 -8.94237 -21
      vertex 11.6061 -8.94237 -22
    endloop
  endfacet
  facet normal 0.454037 -0.890983 0
    outer loop
      vertex 12.425 -8.20503 -22
      vertex 12.6721 -8.07911 -21
      vertex 12.425 -8.20503 -21
    endloop
  endfacet
  facet normal 0.454037 -0.890983 0
    outer loop
      vertex 12.6721 -8.07911 -21
      vertex 12.425 -8.20503 -22
      vertex 12.6721 -8.07911 -22
    endloop
  endfacet
  facet normal -0.156409 -0.987692 0
    outer loop
      vertex 14.027 -7.86452 -22
      vertex 14.301 -7.90791 -21
      vertex 14.027 -7.86452 -21
    endloop
  endfacet
  facet normal -0.156409 -0.987692 -0
    outer loop
      vertex 14.301 -7.90791 -21
      vertex 14.027 -7.86452 -22
      vertex 14.301 -7.90791 -22
    endloop
  endfacet
  facet normal -0.258841 -0.96592 0
    outer loop
      vertex 14.301 -7.90791 -22
      vertex 14.5689 -7.9797 -21
      vertex 14.301 -7.90791 -21
    endloop
  endfacet
  facet normal -0.258841 -0.96592 -0
    outer loop
      vertex 14.5689 -7.9797 -21
      vertex 14.301 -7.90791 -22
      vertex 14.5689 -7.9797 -22
    endloop
  endfacet
  facet normal -0.965916 -0.258856 0
    outer loop
      vertex 16.3421 -9.94903 -22
      vertex 16.2703 -9.68111 -21
      vertex 16.2703 -9.68111 -22
    endloop
  endfacet
  facet normal -0.965916 -0.258856 0
    outer loop
      vertex 16.2703 -9.68111 -21
      vertex 16.3421 -9.94903 -22
      vertex 16.3421 -9.94903 -21
    endloop
  endfacet
  facet normal 0.0523469 -0.998629 0
    outer loop
      vertex 13.473 -7.86452 -22
      vertex 13.75 -7.85 -21
      vertex 13.473 -7.86452 -21
    endloop
  endfacet
  facet normal 0.0523469 -0.998629 0
    outer loop
      vertex 13.75 -7.85 -21
      vertex 13.473 -7.86452 -22
      vertex 13.75 -7.85 -22
    endloop
  endfacet
  facet normal 0.629256 -0.777198 0
    outer loop
      vertex 11.9768 -8.53067 -22
      vertex 12.1924 -8.35611 -21
      vertex 11.9768 -8.53067 -21
    endloop
  endfacet
  facet normal 0.629256 -0.777198 0
    outer loop
      vertex 12.1924 -8.35611 -21
      vertex 11.9768 -8.53067 -22
      vertex 12.1924 -8.35611 -22
    endloop
  endfacet
  facet normal -0.0523469 -0.998629 0
    outer loop
      vertex 13.75 -7.85 -22
      vertex 14.027 -7.86452 -21
      vertex 13.75 -7.85 -21
    endloop
  endfacet
  facet normal -0.0523469 -0.998629 -0
    outer loop
      vertex 14.027 -7.86452 -21
      vertex 13.75 -7.85 -22
      vertex 14.027 -7.86452 -22
    endloop
  endfacet
  facet normal 0.933587 -0.358351 0
    outer loop
      vertex 11.2297 -9.68111 -21
      vertex 11.3291 -9.42215 -22
      vertex 11.3291 -9.42215 -21
    endloop
  endfacet
  facet normal 0.933587 -0.358351 0
    outer loop
      vertex 11.3291 -9.42215 -22
      vertex 11.2297 -9.68111 -21
      vertex 11.2297 -9.68111 -22
    endloop
  endfacet
  facet normal 0.891049 -0.453907 0
    outer loop
      vertex 11.3291 -9.42215 -21
      vertex 11.455 -9.175 -22
      vertex 11.455 -9.175 -21
    endloop
  endfacet
  facet normal 0.891049 -0.453907 0
    outer loop
      vertex 11.455 -9.175 -22
      vertex 11.3291 -9.42215 -21
      vertex 11.3291 -9.42215 -22
    endloop
  endfacet
  facet normal 0.54471 -0.838625 0
    outer loop
      vertex 12.1924 -8.35611 -22
      vertex 12.425 -8.20503 -21
      vertex 12.1924 -8.35611 -21
    endloop
  endfacet
  facet normal 0.54471 -0.838625 0
    outer loop
      vertex 12.425 -8.20503 -21
      vertex 12.1924 -8.35611 -22
      vertex 12.425 -8.20503 -22
    endloop
  endfacet
  facet normal 0.987684 -0.156461 0
    outer loop
      vertex 11.1145 -10.223 -21
      vertex 11.1579 -9.94903 -22
      vertex 11.1579 -9.94903 -21
    endloop
  endfacet
  facet normal 0.987684 -0.156461 0
    outer loop
      vertex 11.1579 -9.94903 -22
      vertex 11.1145 -10.223 -21
      vertex 11.1145 -10.223 -22
    endloop
  endfacet
  facet normal -0.707161 -0.707053 0
    outer loop
      vertex 15.7193 -8.7268 -22
      vertex 15.5232 -8.53067 -21
      vertex 15.5232 -8.53067 -22
    endloop
  endfacet
  facet normal -0.707161 -0.707053 0
    outer loop
      vertex 15.5232 -8.53067 -21
      vertex 15.7193 -8.7268 -22
      vertex 15.7193 -8.7268 -21
    endloop
  endfacet
  facet normal -0.454037 -0.890983 0
    outer loop
      vertex 14.8279 -8.07911 -22
      vertex 15.075 -8.20503 -21
      vertex 14.8279 -8.07911 -21
    endloop
  endfacet
  facet normal -0.454037 -0.890983 -0
    outer loop
      vertex 15.075 -8.20503 -21
      vertex 14.8279 -8.07911 -22
      vertex 15.075 -8.20503 -22
    endloop
  endfacet
  facet normal -0.838624 -0.544711 0
    outer loop
      vertex 16.045 -9.175 -22
      vertex 15.8939 -8.94237 -21
      vertex 15.8939 -8.94237 -22
    endloop
  endfacet
  facet normal -0.838624 -0.544711 0
    outer loop
      vertex 15.8939 -8.94237 -21
      vertex 16.045 -9.175 -22
      vertex 16.045 -9.175 -21
    endloop
  endfacet
  facet normal -0.629256 -0.777198 0
    outer loop
      vertex 15.3076 -8.35611 -22
      vertex 15.5232 -8.53067 -21
      vertex 15.3076 -8.35611 -21
    endloop
  endfacet
  facet normal -0.629256 -0.777198 -0
    outer loop
      vertex 15.5232 -8.53067 -21
      vertex 15.3076 -8.35611 -22
      vertex 15.5232 -8.53067 -22
    endloop
  endfacet
  facet normal 0.838624 -0.544711 0
    outer loop
      vertex 11.455 -9.175 -21
      vertex 11.6061 -8.94237 -22
      vertex 11.6061 -8.94237 -21
    endloop
  endfacet
  facet normal 0.838624 -0.544711 0
    outer loop
      vertex 11.6061 -8.94237 -22
      vertex 11.455 -9.175 -21
      vertex 11.455 -9.175 -22
    endloop
  endfacet
  facet normal 0.258841 -0.96592 0
    outer loop
      vertex 12.9311 -7.9797 -22
      vertex 13.199 -7.90791 -21
      vertex 12.9311 -7.9797 -21
    endloop
  endfacet
  facet normal 0.258841 -0.96592 0
    outer loop
      vertex 13.199 -7.90791 -21
      vertex 12.9311 -7.9797 -22
      vertex 13.199 -7.90791 -22
    endloop
  endfacet
  facet normal 0.156409 -0.987692 0
    outer loop
      vertex 13.199 -7.90791 -22
      vertex 13.473 -7.86452 -21
      vertex 13.199 -7.90791 -21
    endloop
  endfacet
  facet normal 0.156409 -0.987692 0
    outer loop
      vertex 13.473 -7.86452 -21
      vertex 13.199 -7.90791 -22
      vertex 13.473 -7.86452 -22
    endloop
  endfacet
  facet normal 0.998633 -0.052275 0
    outer loop
      vertex 11.1 -10.5 -21
      vertex 11.1145 -10.223 -22
      vertex 11.1145 -10.223 -21
    endloop
  endfacet
  facet normal 0.998633 -0.052275 0
    outer loop
      vertex 11.1145 -10.223 -22
      vertex 11.1 -10.5 -21
      vertex 11.1 -10.5 -22
    endloop
  endfacet
  facet normal -0.54471 -0.838625 0
    outer loop
      vertex 15.075 -8.20503 -22
      vertex 15.3076 -8.35611 -21
      vertex 15.075 -8.20503 -21
    endloop
  endfacet
  facet normal -0.54471 -0.838625 -0
    outer loop
      vertex 15.3076 -8.35611 -21
      vertex 15.075 -8.20503 -22
      vertex 15.3076 -8.35611 -22
    endloop
  endfacet
  facet normal -0.987684 -0.156461 0
    outer loop
      vertex 16.3855 -10.223 -22
      vertex 16.3421 -9.94903 -21
      vertex 16.3421 -9.94903 -22
    endloop
  endfacet
  facet normal -0.987684 -0.156461 0
    outer loop
      vertex 16.3421 -9.94903 -21
      vertex 16.3855 -10.223 -22
      vertex 16.3855 -10.223 -21
    endloop
  endfacet
  facet normal 0.156444 0.987687 -0
    outer loop
      vertex 13.473 -28.1355 -22
      vertex 13.199 -28.0921 -21
      vertex 13.473 -28.1355 -21
    endloop
  endfacet
  facet normal 0.156444 0.987687 0
    outer loop
      vertex 13.199 -28.0921 -21
      vertex 13.473 -28.1355 -22
      vertex 13.199 -28.0921 -22
    endloop
  endfacet
  facet normal 0.052275 0.998633 -0
    outer loop
      vertex 13.75 -28.15 -22
      vertex 13.473 -28.1355 -21
      vertex 13.75 -28.15 -21
    endloop
  endfacet
  facet normal 0.052275 0.998633 0
    outer loop
      vertex 13.473 -28.1355 -21
      vertex 13.75 -28.15 -22
      vertex 13.473 -28.1355 -22
    endloop
  endfacet
  facet normal 0.258874 0.965911 -0
    outer loop
      vertex 13.199 -28.0921 -22
      vertex 12.9311 -28.0203 -21
      vertex 13.199 -28.0921 -21
    endloop
  endfacet
  facet normal 0.258874 0.965911 0
    outer loop
      vertex 12.9311 -28.0203 -21
      vertex 13.199 -28.0921 -22
      vertex 12.9311 -28.0203 -22
    endloop
  endfacet
  facet normal 0.45398 0.891012 -0
    outer loop
      vertex 12.6721 -27.9209 -22
      vertex 12.425 -27.795 -21
      vertex 12.6721 -27.9209 -21
    endloop
  endfacet
  facet normal 0.45398 0.891012 0
    outer loop
      vertex 12.425 -27.795 -21
      vertex 12.6721 -27.9209 -22
      vertex 12.425 -27.795 -22
    endloop
  endfacet
  facet normal -0.987687 0.156444 0
    outer loop
      vertex 16.3421 -26.051 -22
      vertex 16.3855 -25.777 -21
      vertex 16.3855 -25.777 -22
    endloop
  endfacet
  facet normal -0.987687 0.156444 0
    outer loop
      vertex 16.3855 -25.777 -21
      vertex 16.3421 -26.051 -22
      vertex 16.3421 -26.051 -21
    endloop
  endfacet
  facet normal 0.629343 0.777127 -0
    outer loop
      vertex 12.1924 -27.6439 -22
      vertex 11.9768 -27.4693 -21
      vertex 12.1924 -27.6439 -21
    endloop
  endfacet
  facet normal 0.629343 0.777127 0
    outer loop
      vertex 11.9768 -27.4693 -21
      vertex 12.1924 -27.6439 -22
      vertex 11.9768 -27.4693 -22
    endloop
  endfacet
  facet normal -0.707107 0.707107 0
    outer loop
      vertex 15.5232 -27.4693 -22
      vertex 15.7193 -27.2732 -21
      vertex 15.7193 -27.2732 -22
    endloop
  endfacet
  facet normal -0.707107 0.707107 0
    outer loop
      vertex 15.7193 -27.2732 -21
      vertex 15.5232 -27.4693 -22
      vertex 15.5232 -27.4693 -21
    endloop
  endfacet
  facet normal 0.54476 0.838592 -0
    outer loop
      vertex 12.425 -27.795 -22
      vertex 12.1924 -27.6439 -21
      vertex 12.425 -27.795 -21
    endloop
  endfacet
  facet normal 0.54476 0.838592 0
    outer loop
      vertex 12.1924 -27.6439 -21
      vertex 12.425 -27.795 -22
      vertex 12.1924 -27.6439 -22
    endloop
  endfacet
  facet normal -0.933605 0.358303 0
    outer loop
      vertex 16.1709 -26.5779 -22
      vertex 16.2703 -26.3189 -21
      vertex 16.2703 -26.3189 -22
    endloop
  endfacet
  facet normal -0.933605 0.358303 0
    outer loop
      vertex 16.2703 -26.3189 -21
      vertex 16.1709 -26.5779 -22
      vertex 16.1709 -26.5779 -21
    endloop
  endfacet
  facet normal -0.358303 0.933605 0
    outer loop
      vertex 14.8279 -27.9209 -22
      vertex 14.5689 -28.0203 -21
      vertex 14.8279 -27.9209 -21
    endloop
  endfacet
  facet normal -0.358303 0.933605 0
    outer loop
      vertex 14.5689 -28.0203 -21
      vertex 14.8279 -27.9209 -22
      vertex 14.5689 -28.0203 -22
    endloop
  endfacet
  facet normal -0.891012 0.45398 0
    outer loop
      vertex 16.045 -26.825 -22
      vertex 16.1709 -26.5779 -21
      vertex 16.1709 -26.5779 -22
    endloop
  endfacet
  facet normal -0.891012 0.45398 0
    outer loop
      vertex 16.1709 -26.5779 -21
      vertex 16.045 -26.825 -22
      vertex 16.045 -26.825 -21
    endloop
  endfacet
  facet normal -0.156444 0.987687 0
    outer loop
      vertex 14.301 -28.0921 -22
      vertex 14.027 -28.1355 -21
      vertex 14.301 -28.0921 -21
    endloop
  endfacet
  facet normal -0.156444 0.987687 0
    outer loop
      vertex 14.027 -28.1355 -21
      vertex 14.301 -28.0921 -22
      vertex 14.027 -28.1355 -22
    endloop
  endfacet
  facet normal 0.707107 0.707107 0
    outer loop
      vertex 11.9768 -27.4693 -21
      vertex 11.7807 -27.2732 -22
      vertex 11.7807 -27.2732 -21
    endloop
  endfacet
  facet normal 0.707107 0.707107 0
    outer loop
      vertex 11.7807 -27.2732 -22
      vertex 11.9768 -27.4693 -21
      vertex 11.9768 -27.4693 -22
    endloop
  endfacet
  facet normal -0.258874 0.965911 0
    outer loop
      vertex 14.5689 -28.0203 -22
      vertex 14.301 -28.0921 -21
      vertex 14.5689 -28.0203 -21
    endloop
  endfacet
  facet normal -0.258874 0.965911 0
    outer loop
      vertex 14.301 -28.0921 -21
      vertex 14.5689 -28.0203 -22
      vertex 14.301 -28.0921 -22
    endloop
  endfacet
  facet normal -0.777127 0.629343 0
    outer loop
      vertex 15.7193 -27.2732 -22
      vertex 15.8939 -27.0576 -21
      vertex 15.8939 -27.0576 -22
    endloop
  endfacet
  facet normal -0.777127 0.629343 0
    outer loop
      vertex 15.8939 -27.0576 -21
      vertex 15.7193 -27.2732 -22
      vertex 15.7193 -27.2732 -21
    endloop
  endfacet
  facet normal -0.052275 0.998633 0
    outer loop
      vertex 14.027 -28.1355 -22
      vertex 13.75 -28.15 -21
      vertex 14.027 -28.1355 -21
    endloop
  endfacet
  facet normal -0.052275 0.998633 0
    outer loop
      vertex 13.75 -28.15 -21
      vertex 14.027 -28.1355 -22
      vertex 13.75 -28.15 -22
    endloop
  endfacet
  facet normal 0.777127 0.629343 0
    outer loop
      vertex 11.7807 -27.2732 -21
      vertex 11.6061 -27.0576 -22
      vertex 11.6061 -27.0576 -21
    endloop
  endfacet
  facet normal 0.777127 0.629343 0
    outer loop
      vertex 11.6061 -27.0576 -22
      vertex 11.7807 -27.2732 -21
      vertex 11.7807 -27.2732 -22
    endloop
  endfacet
  facet normal 0.965911 0.258874 0
    outer loop
      vertex 11.2297 -26.3189 -21
      vertex 11.1579 -26.051 -22
      vertex 11.1579 -26.051 -21
    endloop
  endfacet
  facet normal 0.965911 0.258874 0
    outer loop
      vertex 11.1579 -26.051 -22
      vertex 11.2297 -26.3189 -21
      vertex 11.2297 -26.3189 -22
    endloop
  endfacet
  facet normal 0.891012 0.45398 0
    outer loop
      vertex 11.455 -26.825 -21
      vertex 11.3291 -26.5779 -22
      vertex 11.3291 -26.5779 -21
    endloop
  endfacet
  facet normal 0.891012 0.45398 0
    outer loop
      vertex 11.3291 -26.5779 -22
      vertex 11.455 -26.825 -21
      vertex 11.455 -26.825 -22
    endloop
  endfacet
  facet normal 0.358303 0.933605 -0
    outer loop
      vertex 12.9311 -28.0203 -22
      vertex 12.6721 -27.9209 -21
      vertex 12.9311 -28.0203 -21
    endloop
  endfacet
  facet normal 0.358303 0.933605 0
    outer loop
      vertex 12.6721 -27.9209 -21
      vertex 12.9311 -28.0203 -22
      vertex 12.6721 -27.9209 -22
    endloop
  endfacet
  facet normal -0.965911 0.258874 0
    outer loop
      vertex 16.2703 -26.3189 -22
      vertex 16.3421 -26.051 -21
      vertex 16.3421 -26.051 -22
    endloop
  endfacet
  facet normal -0.965911 0.258874 0
    outer loop
      vertex 16.3421 -26.051 -21
      vertex 16.2703 -26.3189 -22
      vertex 16.2703 -26.3189 -21
    endloop
  endfacet
  facet normal 0.838592 0.54476 0
    outer loop
      vertex 11.6061 -27.0576 -21
      vertex 11.455 -26.825 -22
      vertex 11.455 -26.825 -21
    endloop
  endfacet
  facet normal 0.838592 0.54476 0
    outer loop
      vertex 11.455 -26.825 -22
      vertex 11.6061 -27.0576 -21
      vertex 11.6061 -27.0576 -22
    endloop
  endfacet
  facet normal 0.933605 0.358303 0
    outer loop
      vertex 11.3291 -26.5779 -21
      vertex 11.2297 -26.3189 -22
      vertex 11.2297 -26.3189 -21
    endloop
  endfacet
  facet normal 0.933605 0.358303 0
    outer loop
      vertex 11.2297 -26.3189 -22
      vertex 11.3291 -26.5779 -21
      vertex 11.3291 -26.5779 -22
    endloop
  endfacet
  facet normal -0.998633 0.052275 0
    outer loop
      vertex 16.3855 -25.777 -22
      vertex 16.4 -25.5 -21
      vertex 16.4 -25.5 -22
    endloop
  endfacet
  facet normal -0.998633 0.052275 0
    outer loop
      vertex 16.4 -25.5 -21
      vertex 16.3855 -25.777 -22
      vertex 16.3855 -25.777 -21
    endloop
  endfacet
  facet normal 0.998633 0.052275 0
    outer loop
      vertex 11.1145 -25.777 -21
      vertex 11.1 -25.5 -22
      vertex 11.1 -25.5 -21
    endloop
  endfacet
  facet normal 0.998633 0.052275 0
    outer loop
      vertex 11.1 -25.5 -22
      vertex 11.1145 -25.777 -21
      vertex 11.1145 -25.777 -22
    endloop
  endfacet
  facet normal -0.838592 0.54476 0
    outer loop
      vertex 15.8939 -27.0576 -22
      vertex 16.045 -26.825 -21
      vertex 16.045 -26.825 -22
    endloop
  endfacet
  facet normal -0.838592 0.54476 0
    outer loop
      vertex 16.045 -26.825 -21
      vertex 15.8939 -27.0576 -22
      vertex 15.8939 -27.0576 -21
    endloop
  endfacet
  facet normal -0.629343 0.777127 0
    outer loop
      vertex 15.5232 -27.4693 -22
      vertex 15.3076 -27.6439 -21
      vertex 15.5232 -27.4693 -21
    endloop
  endfacet
  facet normal -0.629343 0.777127 0
    outer loop
      vertex 15.3076 -27.6439 -21
      vertex 15.5232 -27.4693 -22
      vertex 15.3076 -27.6439 -22
    endloop
  endfacet
  facet normal -0.45398 0.891012 0
    outer loop
      vertex 15.075 -27.795 -22
      vertex 14.8279 -27.9209 -21
      vertex 15.075 -27.795 -21
    endloop
  endfacet
  facet normal -0.45398 0.891012 0
    outer loop
      vertex 14.8279 -27.9209 -21
      vertex 15.075 -27.795 -22
      vertex 14.8279 -27.9209 -22
    endloop
  endfacet
  facet normal -0.54476 0.838592 0
    outer loop
      vertex 15.3076 -27.6439 -22
      vertex 15.075 -27.795 -21
      vertex 15.3076 -27.6439 -21
    endloop
  endfacet
  facet normal -0.54476 0.838592 0
    outer loop
      vertex 15.075 -27.795 -21
      vertex 15.3076 -27.6439 -22
      vertex 15.075 -27.795 -22
    endloop
  endfacet
  facet normal 0.987687 0.156444 0
    outer loop
      vertex 11.1579 -26.051 -21
      vertex 11.1145 -25.777 -22
      vertex 11.1145 -25.777 -21
    endloop
  endfacet
  facet normal 0.987687 0.156444 0
    outer loop
      vertex 11.1145 -25.777 -22
      vertex 11.1579 -26.051 -21
      vertex 11.1579 -26.051 -22
    endloop
  endfacet
  facet normal 1 -0 0
    outer loop
      vertex 11.1 -25.5 -21
      vertex 11.1 -10.5 -22
      vertex 11.1 -10.5 -21
    endloop
  endfacet
  facet normal 1 0 0
    outer loop
      vertex 11.1 -10.5 -22
      vertex 11.1 -25.5 -21
      vertex 11.1 -25.5 -22
    endloop
  endfacet
  facet normal -1 0 0
    outer loop
      vertex 16.4 -25.5 -22
      vertex 16.4 -10.5 -21
      vertex 16.4 -10.5 -22
    endloop
  endfacet
  facet normal -1 -0 0
    outer loop
      vertex 16.4 -10.5 -21
      vertex 16.4 -25.5 -22
      vertex 16.4 -25.5 -21
    endloop
  endfacet
  facet normal 0.358334 -0.933593 0
    outer loop
      vertex 40.1721 -8.07911 -22
      vertex 40.4311 -7.9797 -21
      vertex 40.1721 -8.07911 -21
    endloop
  endfacet
  facet normal 0.358334 -0.933593 0
    outer loop
      vertex 40.4311 -7.9797 -21
      vertex 40.1721 -8.07911 -22
      vertex 40.4311 -7.9797 -22
    endloop
  endfacet
  facet normal -0.777085 -0.629396 0
    outer loop
      vertex 43.3939 -8.94237 -22
      vertex 43.2193 -8.7268 -21
      vertex 43.2193 -8.7268 -22
    endloop
  endfacet
  facet normal -0.777085 -0.629396 0
    outer loop
      vertex 43.2193 -8.7268 -21
      vertex 43.3939 -8.94237 -22
      vertex 43.3939 -8.94237 -21
    endloop
  endfacet
  facet normal -0.358334 -0.933593 0
    outer loop
      vertex 42.0689 -7.9797 -22
      vertex 42.3279 -8.07911 -21
      vertex 42.0689 -7.9797 -21
    endloop
  endfacet
  facet normal -0.358334 -0.933593 -0
    outer loop
      vertex 42.3279 -8.07911 -21
      vertex 42.0689 -7.9797 -22
      vertex 42.3279 -8.07911 -22
    endloop
  endfacet
  facet normal -0.891049 -0.453907 0
    outer loop
      vertex 43.6709 -9.42215 -22
      vertex 43.545 -9.175 -21
      vertex 43.545 -9.175 -22
    endloop
  endfacet
  facet normal -0.891049 -0.453907 0
    outer loop
      vertex 43.545 -9.175 -21
      vertex 43.6709 -9.42215 -22
      vertex 43.6709 -9.42215 -21
    endloop
  endfacet
  facet normal -0.998633 -0.052275 0
    outer loop
      vertex 43.9 -10.5 -22
      vertex 43.8855 -10.223 -21
      vertex 43.8855 -10.223 -22
    endloop
  endfacet
  facet normal -0.998633 -0.052275 0
    outer loop
      vertex 43.8855 -10.223 -21
      vertex 43.9 -10.5 -22
      vertex 43.9 -10.5 -21
    endloop
  endfacet
  facet normal 0.965916 -0.258856 0
    outer loop
      vertex 38.6579 -9.94903 -21
      vertex 38.7297 -9.68111 -22
      vertex 38.7297 -9.68111 -21
    endloop
  endfacet
  facet normal 0.965916 -0.258856 0
    outer loop
      vertex 38.7297 -9.68111 -22
      vertex 38.6579 -9.94903 -21
      vertex 38.6579 -9.94903 -22
    endloop
  endfacet
  facet normal -0.933587 -0.358351 0
    outer loop
      vertex 43.7703 -9.68111 -22
      vertex 43.6709 -9.42215 -21
      vertex 43.6709 -9.42215 -22
    endloop
  endfacet
  facet normal -0.933587 -0.358351 0
    outer loop
      vertex 43.6709 -9.42215 -21
      vertex 43.7703 -9.68111 -22
      vertex 43.7703 -9.68111 -21
    endloop
  endfacet
  facet normal 0.707161 -0.707053 0
    outer loop
      vertex 39.2807 -8.7268 -22
      vertex 39.4768 -8.53067 -21
      vertex 39.2807 -8.7268 -21
    endloop
  endfacet
  facet normal 0.707161 -0.707053 0
    outer loop
      vertex 39.4768 -8.53067 -21
      vertex 39.2807 -8.7268 -22
      vertex 39.4768 -8.53067 -22
    endloop
  endfacet
  facet normal 0.777085 -0.629396 0
    outer loop
      vertex 39.1061 -8.94237 -21
      vertex 39.2807 -8.7268 -22
      vertex 39.2807 -8.7268 -21
    endloop
  endfacet
  facet normal 0.777085 -0.629396 0
    outer loop
      vertex 39.2807 -8.7268 -22
      vertex 39.1061 -8.94237 -21
      vertex 39.1061 -8.94237 -22
    endloop
  endfacet
  facet normal 0.454037 -0.890983 0
    outer loop
      vertex 39.925 -8.20503 -22
      vertex 40.1721 -8.07911 -21
      vertex 39.925 -8.20503 -21
    endloop
  endfacet
  facet normal 0.454037 -0.890983 0
    outer loop
      vertex 40.1721 -8.07911 -21
      vertex 39.925 -8.20503 -22
      vertex 40.1721 -8.07911 -22
    endloop
  endfacet
  facet normal -0.156409 -0.987692 0
    outer loop
      vertex 41.527 -7.86452 -22
      vertex 41.801 -7.90791 -21
      vertex 41.527 -7.86452 -21
    endloop
  endfacet
  facet normal -0.156409 -0.987692 -0
    outer loop
      vertex 41.801 -7.90791 -21
      vertex 41.527 -7.86452 -22
      vertex 41.801 -7.90791 -22
    endloop
  endfacet
  facet normal -0.258841 -0.96592 0
    outer loop
      vertex 41.801 -7.90791 -22
      vertex 42.0689 -7.9797 -21
      vertex 41.801 -7.90791 -21
    endloop
  endfacet
  facet normal -0.258841 -0.96592 -0
    outer loop
      vertex 42.0689 -7.9797 -21
      vertex 41.801 -7.90791 -22
      vertex 42.0689 -7.9797 -22
    endloop
  endfacet
  facet normal -0.965916 -0.258856 0
    outer loop
      vertex 43.8421 -9.94903 -22
      vertex 43.7703 -9.68111 -21
      vertex 43.7703 -9.68111 -22
    endloop
  endfacet
  facet normal -0.965916 -0.258856 0
    outer loop
      vertex 43.7703 -9.68111 -21
      vertex 43.8421 -9.94903 -22
      vertex 43.8421 -9.94903 -21
    endloop
  endfacet
  facet normal 0.0523469 -0.998629 0
    outer loop
      vertex 40.973 -7.86452 -22
      vertex 41.25 -7.85 -21
      vertex 40.973 -7.86452 -21
    endloop
  endfacet
  facet normal 0.0523469 -0.998629 0
    outer loop
      vertex 41.25 -7.85 -21
      vertex 40.973 -7.86452 -22
      vertex 41.25 -7.85 -22
    endloop
  endfacet
  facet normal 0.629256 -0.777198 0
    outer loop
      vertex 39.4768 -8.53067 -22
      vertex 39.6924 -8.35611 -21
      vertex 39.4768 -8.53067 -21
    endloop
  endfacet
  facet normal 0.629256 -0.777198 0
    outer loop
      vertex 39.6924 -8.35611 -21
      vertex 39.4768 -8.53067 -22
      vertex 39.6924 -8.35611 -22
    endloop
  endfacet
  facet normal -0.0523469 -0.998629 0
    outer loop
      vertex 41.25 -7.85 -22
      vertex 41.527 -7.86452 -21
      vertex 41.25 -7.85 -21
    endloop
  endfacet
  facet normal -0.0523469 -0.998629 -0
    outer loop
      vertex 41.527 -7.86452 -21
      vertex 41.25 -7.85 -22
      vertex 41.527 -7.86452 -22
    endloop
  endfacet
  facet normal 0.933587 -0.358351 0
    outer loop
      vertex 38.7297 -9.68111 -21
      vertex 38.8291 -9.42215 -22
      vertex 38.8291 -9.42215 -21
    endloop
  endfacet
  facet normal 0.933587 -0.358351 0
    outer loop
      vertex 38.8291 -9.42215 -22
      vertex 38.7297 -9.68111 -21
      vertex 38.7297 -9.68111 -22
    endloop
  endfacet
  facet normal 0.891049 -0.453907 0
    outer loop
      vertex 38.8291 -9.42215 -21
      vertex 38.955 -9.175 -22
      vertex 38.955 -9.175 -21
    endloop
  endfacet
  facet normal 0.891049 -0.453907 0
    outer loop
      vertex 38.955 -9.175 -22
      vertex 38.8291 -9.42215 -21
      vertex 38.8291 -9.42215 -22
    endloop
  endfacet
  facet normal 0.54471 -0.838625 0
    outer loop
      vertex 39.6924 -8.35611 -22
      vertex 39.925 -8.20503 -21
      vertex 39.6924 -8.35611 -21
    endloop
  endfacet
  facet normal 0.54471 -0.838625 0
    outer loop
      vertex 39.925 -8.20503 -21
      vertex 39.6924 -8.35611 -22
      vertex 39.925 -8.20503 -22
    endloop
  endfacet
  facet normal 0.987684 -0.156461 0
    outer loop
      vertex 38.6145 -10.223 -21
      vertex 38.6579 -9.94903 -22
      vertex 38.6579 -9.94903 -21
    endloop
  endfacet
  facet normal 0.987684 -0.156461 0
    outer loop
      vertex 38.6579 -9.94903 -22
      vertex 38.6145 -10.223 -21
      vertex 38.6145 -10.223 -22
    endloop
  endfacet
  facet normal -0.707161 -0.707053 0
    outer loop
      vertex 43.0232 -8.53067 -22
      vertex 43.2193 -8.7268 -21
      vertex 43.0232 -8.53067 -21
    endloop
  endfacet
  facet normal -0.707161 -0.707053 -0
    outer loop
      vertex 43.2193 -8.7268 -21
      vertex 43.0232 -8.53067 -22
      vertex 43.2193 -8.7268 -22
    endloop
  endfacet
  facet normal -0.454037 -0.890983 0
    outer loop
      vertex 42.3279 -8.07911 -22
      vertex 42.575 -8.20503 -21
      vertex 42.3279 -8.07911 -21
    endloop
  endfacet
  facet normal -0.454037 -0.890983 -0
    outer loop
      vertex 42.575 -8.20503 -21
      vertex 42.3279 -8.07911 -22
      vertex 42.575 -8.20503 -22
    endloop
  endfacet
  facet normal -0.838624 -0.544711 0
    outer loop
      vertex 43.545 -9.175 -22
      vertex 43.3939 -8.94237 -21
      vertex 43.3939 -8.94237 -22
    endloop
  endfacet
  facet normal -0.838624 -0.544711 0
    outer loop
      vertex 43.3939 -8.94237 -21
      vertex 43.545 -9.175 -22
      vertex 43.545 -9.175 -21
    endloop
  endfacet
  facet normal -0.629256 -0.777198 0
    outer loop
      vertex 42.8076 -8.35611 -22
      vertex 43.0232 -8.53067 -21
      vertex 42.8076 -8.35611 -21
    endloop
  endfacet
  facet normal -0.629256 -0.777198 -0
    outer loop
      vertex 43.0232 -8.53067 -21
      vertex 42.8076 -8.35611 -22
      vertex 43.0232 -8.53067 -22
    endloop
  endfacet
  facet normal 0.838624 -0.544711 0
    outer loop
      vertex 38.955 -9.175 -21
      vertex 39.1061 -8.94237 -22
      vertex 39.1061 -8.94237 -21
    endloop
  endfacet
  facet normal 0.838624 -0.544711 0
    outer loop
      vertex 39.1061 -8.94237 -22
      vertex 38.955 -9.175 -21
      vertex 38.955 -9.175 -22
    endloop
  endfacet
  facet normal 0.258841 -0.96592 0
    outer loop
      vertex 40.4311 -7.9797 -22
      vertex 40.699 -7.90791 -21
      vertex 40.4311 -7.9797 -21
    endloop
  endfacet
  facet normal 0.258841 -0.96592 0
    outer loop
      vertex 40.699 -7.90791 -21
      vertex 40.4311 -7.9797 -22
      vertex 40.699 -7.90791 -22
    endloop
  endfacet
  facet normal 0.156409 -0.987692 0
    outer loop
      vertex 40.699 -7.90791 -22
      vertex 40.973 -7.86452 -21
      vertex 40.699 -7.90791 -21
    endloop
  endfacet
  facet normal 0.156409 -0.987692 0
    outer loop
      vertex 40.973 -7.86452 -21
      vertex 40.699 -7.90791 -22
      vertex 40.973 -7.86452 -22
    endloop
  endfacet
  facet normal 0.998633 -0.052275 0
    outer loop
      vertex 38.6 -10.5 -21
      vertex 38.6145 -10.223 -22
      vertex 38.6145 -10.223 -21
    endloop
  endfacet
  facet normal 0.998633 -0.052275 0
    outer loop
      vertex 38.6145 -10.223 -22
      vertex 38.6 -10.5 -21
      vertex 38.6 -10.5 -22
    endloop
  endfacet
  facet normal -0.54471 -0.838625 0
    outer loop
      vertex 42.575 -8.20503 -22
      vertex 42.8076 -8.35611 -21
      vertex 42.575 -8.20503 -21
    endloop
  endfacet
  facet normal -0.54471 -0.838625 -0
    outer loop
      vertex 42.8076 -8.35611 -21
      vertex 42.575 -8.20503 -22
      vertex 42.8076 -8.35611 -22
    endloop
  endfacet
  facet normal -0.987684 -0.156461 0
    outer loop
      vertex 43.8855 -10.223 -22
      vertex 43.8421 -9.94903 -21
      vertex 43.8421 -9.94903 -22
    endloop
  endfacet
  facet normal -0.987684 -0.156461 0
    outer loop
      vertex 43.8421 -9.94903 -21
      vertex 43.8855 -10.223 -22
      vertex 43.8855 -10.223 -21
    endloop
  endfacet
  facet normal 0.156444 0.987687 -0
    outer loop
      vertex 40.973 -28.1355 -22
      vertex 40.699 -28.0921 -21
      vertex 40.973 -28.1355 -21
    endloop
  endfacet
  facet normal 0.156444 0.987687 0
    outer loop
      vertex 40.699 -28.0921 -21
      vertex 40.973 -28.1355 -22
      vertex 40.699 -28.0921 -22
    endloop
  endfacet
  facet normal 0.052275 0.998633 -0
    outer loop
      vertex 41.25 -28.15 -22
      vertex 40.973 -28.1355 -21
      vertex 41.25 -28.15 -21
    endloop
  endfacet
  facet normal 0.052275 0.998633 0
    outer loop
      vertex 40.973 -28.1355 -21
      vertex 41.25 -28.15 -22
      vertex 40.973 -28.1355 -22
    endloop
  endfacet
  facet normal 0.258874 0.965911 -0
    outer loop
      vertex 40.699 -28.0921 -22
      vertex 40.4311 -28.0203 -21
      vertex 40.699 -28.0921 -21
    endloop
  endfacet
  facet normal 0.258874 0.965911 0
    outer loop
      vertex 40.4311 -28.0203 -21
      vertex 40.699 -28.0921 -22
      vertex 40.4311 -28.0203 -22
    endloop
  endfacet
  facet normal 0.45398 0.891012 -0
    outer loop
      vertex 40.1721 -27.9209 -22
      vertex 39.925 -27.795 -21
      vertex 40.1721 -27.9209 -21
    endloop
  endfacet
  facet normal 0.45398 0.891012 0
    outer loop
      vertex 39.925 -27.795 -21
      vertex 40.1721 -27.9209 -22
      vertex 39.925 -27.795 -22
    endloop
  endfacet
  facet normal -0.987687 0.156444 0
    outer loop
      vertex 43.8421 -26.051 -22
      vertex 43.8855 -25.777 -21
      vertex 43.8855 -25.777 -22
    endloop
  endfacet
  facet normal -0.987687 0.156444 0
    outer loop
      vertex 43.8855 -25.777 -21
      vertex 43.8421 -26.051 -22
      vertex 43.8421 -26.051 -21
    endloop
  endfacet
  facet normal 0.629343 0.777127 -0
    outer loop
      vertex 39.6924 -27.6439 -22
      vertex 39.4768 -27.4693 -21
      vertex 39.6924 -27.6439 -21
    endloop
  endfacet
  facet normal 0.629343 0.777127 0
    outer loop
      vertex 39.4768 -27.4693 -21
      vertex 39.6924 -27.6439 -22
      vertex 39.4768 -27.4693 -22
    endloop
  endfacet
  facet normal -0.707107 0.707107 0
    outer loop
      vertex 43.2193 -27.2732 -22
      vertex 43.0232 -27.4693 -21
      vertex 43.2193 -27.2732 -21
    endloop
  endfacet
  facet normal -0.707107 0.707107 0
    outer loop
      vertex 43.0232 -27.4693 -21
      vertex 43.2193 -27.2732 -22
      vertex 43.0232 -27.4693 -22
    endloop
  endfacet
  facet normal 0.54476 0.838592 -0
    outer loop
      vertex 39.925 -27.795 -22
      vertex 39.6924 -27.6439 -21
      vertex 39.925 -27.795 -21
    endloop
  endfacet
  facet normal 0.54476 0.838592 0
    outer loop
      vertex 39.6924 -27.6439 -21
      vertex 39.925 -27.795 -22
      vertex 39.6924 -27.6439 -22
    endloop
  endfacet
  facet normal -0.933605 0.358303 0
    outer loop
      vertex 43.6709 -26.5779 -22
      vertex 43.7703 -26.3189 -21
      vertex 43.7703 -26.3189 -22
    endloop
  endfacet
  facet normal -0.933605 0.358303 0
    outer loop
      vertex 43.7703 -26.3189 -21
      vertex 43.6709 -26.5779 -22
      vertex 43.6709 -26.5779 -21
    endloop
  endfacet
  facet normal -0.358303 0.933605 0
    outer loop
      vertex 42.3279 -27.9209 -22
      vertex 42.0689 -28.0203 -21
      vertex 42.3279 -27.9209 -21
    endloop
  endfacet
  facet normal -0.358303 0.933605 0
    outer loop
      vertex 42.0689 -28.0203 -21
      vertex 42.3279 -27.9209 -22
      vertex 42.0689 -28.0203 -22
    endloop
  endfacet
  facet normal -0.891012 0.45398 0
    outer loop
      vertex 43.545 -26.825 -22
      vertex 43.6709 -26.5779 -21
      vertex 43.6709 -26.5779 -22
    endloop
  endfacet
  facet normal -0.891012 0.45398 0
    outer loop
      vertex 43.6709 -26.5779 -21
      vertex 43.545 -26.825 -22
      vertex 43.545 -26.825 -21
    endloop
  endfacet
  facet normal -0.156444 0.987687 0
    outer loop
      vertex 41.801 -28.0921 -22
      vertex 41.527 -28.1355 -21
      vertex 41.801 -28.0921 -21
    endloop
  endfacet
  facet normal -0.156444 0.987687 0
    outer loop
      vertex 41.527 -28.1355 -21
      vertex 41.801 -28.0921 -22
      vertex 41.527 -28.1355 -22
    endloop
  endfacet
  facet normal 0.707107 0.707107 -0
    outer loop
      vertex 39.4768 -27.4693 -22
      vertex 39.2807 -27.2732 -21
      vertex 39.4768 -27.4693 -21
    endloop
  endfacet
  facet normal 0.707107 0.707107 0
    outer loop
      vertex 39.2807 -27.2732 -21
      vertex 39.4768 -27.4693 -22
      vertex 39.2807 -27.2732 -22
    endloop
  endfacet
  facet normal -0.258874 0.965911 0
    outer loop
      vertex 42.0689 -28.0203 -22
      vertex 41.801 -28.0921 -21
      vertex 42.0689 -28.0203 -21
    endloop
  endfacet
  facet normal -0.258874 0.965911 0
    outer loop
      vertex 41.801 -28.0921 -21
      vertex 42.0689 -28.0203 -22
      vertex 41.801 -28.0921 -22
    endloop
  endfacet
  facet normal -0.777127 0.629343 0
    outer loop
      vertex 43.2193 -27.2732 -22
      vertex 43.3939 -27.0576 -21
      vertex 43.3939 -27.0576 -22
    endloop
  endfacet
  facet normal -0.777127 0.629343 0
    outer loop
      vertex 43.3939 -27.0576 -21
      vertex 43.2193 -27.2732 -22
      vertex 43.2193 -27.2732 -21
    endloop
  endfacet
  facet normal -0.052275 0.998633 0
    outer loop
      vertex 41.527 -28.1355 -22
      vertex 41.25 -28.15 -21
      vertex 41.527 -28.1355 -21
    endloop
  endfacet
  facet normal -0.052275 0.998633 0
    outer loop
      vertex 41.25 -28.15 -21
      vertex 41.527 -28.1355 -22
      vertex 41.25 -28.15 -22
    endloop
  endfacet
  facet normal 0.777127 0.629343 0
    outer loop
      vertex 39.2807 -27.2732 -21
      vertex 39.1061 -27.0576 -22
      vertex 39.1061 -27.0576 -21
    endloop
  endfacet
  facet normal 0.777127 0.629343 0
    outer loop
      vertex 39.1061 -27.0576 -22
      vertex 39.2807 -27.2732 -21
      vertex 39.2807 -27.2732 -22
    endloop
  endfacet
  facet normal 0.965911 0.258874 0
    outer loop
      vertex 38.7297 -26.3189 -21
      vertex 38.6579 -26.051 -22
      vertex 38.6579 -26.051 -21
    endloop
  endfacet
  facet normal 0.965911 0.258874 0
    outer loop
      vertex 38.6579 -26.051 -22
      vertex 38.7297 -26.3189 -21
      vertex 38.7297 -26.3189 -22
    endloop
  endfacet
  facet normal 0.891012 0.45398 0
    outer loop
      vertex 38.955 -26.825 -21
      vertex 38.8291 -26.5779 -22
      vertex 38.8291 -26.5779 -21
    endloop
  endfacet
  facet normal 0.891012 0.45398 0
    outer loop
      vertex 38.8291 -26.5779 -22
      vertex 38.955 -26.825 -21
      vertex 38.955 -26.825 -22
    endloop
  endfacet
  facet normal 0.358303 0.933605 -0
    outer loop
      vertex 40.4311 -28.0203 -22
      vertex 40.1721 -27.9209 -21
      vertex 40.4311 -28.0203 -21
    endloop
  endfacet
  facet normal 0.358303 0.933605 0
    outer loop
      vertex 40.1721 -27.9209 -21
      vertex 40.4311 -28.0203 -22
      vertex 40.1721 -27.9209 -22
    endloop
  endfacet
  facet normal -0.965911 0.258874 0
    outer loop
      vertex 43.7703 -26.3189 -22
      vertex 43.8421 -26.051 -21
      vertex 43.8421 -26.051 -22
    endloop
  endfacet
  facet normal -0.965911 0.258874 0
    outer loop
      vertex 43.8421 -26.051 -21
      vertex 43.7703 -26.3189 -22
      vertex 43.7703 -26.3189 -21
    endloop
  endfacet
  facet normal 0.838592 0.54476 0
    outer loop
      vertex 39.1061 -27.0576 -21
      vertex 38.955 -26.825 -22
      vertex 38.955 -26.825 -21
    endloop
  endfacet
  facet normal 0.838592 0.54476 0
    outer loop
      vertex 38.955 -26.825 -22
      vertex 39.1061 -27.0576 -21
      vertex 39.1061 -27.0576 -22
    endloop
  endfacet
  facet normal 0.933605 0.358303 0
    outer loop
      vertex 38.8291 -26.5779 -21
      vertex 38.7297 -26.3189 -22
      vertex 38.7297 -26.3189 -21
    endloop
  endfacet
  facet normal 0.933605 0.358303 0
    outer loop
      vertex 38.7297 -26.3189 -22
      vertex 38.8291 -26.5779 -21
      vertex 38.8291 -26.5779 -22
    endloop
  endfacet
  facet normal -0.998633 0.052275 0
    outer loop
      vertex 43.8855 -25.777 -22
      vertex 43.9 -25.5 -21
      vertex 43.9 -25.5 -22
    endloop
  endfacet
  facet normal -0.998633 0.052275 0
    outer loop
      vertex 43.9 -25.5 -21
      vertex 43.8855 -25.777 -22
      vertex 43.8855 -25.777 -21
    endloop
  endfacet
  facet normal 0.998633 0.052275 0
    outer loop
      vertex 38.6145 -25.777 -21
      vertex 38.6 -25.5 -22
      vertex 38.6 -25.5 -21
    endloop
  endfacet
  facet normal 0.998633 0.052275 0
    outer loop
      vertex 38.6 -25.5 -22
      vertex 38.6145 -25.777 -21
      vertex 38.6145 -25.777 -22
    endloop
  endfacet
  facet normal -0.838592 0.54476 0
    outer loop
      vertex 43.3939 -27.0576 -22
      vertex 43.545 -26.825 -21
      vertex 43.545 -26.825 -22
    endloop
  endfacet
  facet normal -0.838592 0.54476 0
    outer loop
      vertex 43.545 -26.825 -21
      vertex 43.3939 -27.0576 -22
      vertex 43.3939 -27.0576 -21
    endloop
  endfacet
  facet normal -0.629343 0.777127 0
    outer loop
      vertex 43.0232 -27.4693 -22
      vertex 42.8076 -27.6439 -21
      vertex 43.0232 -27.4693 -21
    endloop
  endfacet
  facet normal -0.629343 0.777127 0
    outer loop
      vertex 42.8076 -27.6439 -21
      vertex 43.0232 -27.4693 -22
      vertex 42.8076 -27.6439 -22
    endloop
  endfacet
  facet normal -0.45398 0.891012 0
    outer loop
      vertex 42.575 -27.795 -22
      vertex 42.3279 -27.9209 -21
      vertex 42.575 -27.795 -21
    endloop
  endfacet
  facet normal -0.45398 0.891012 0
    outer loop
      vertex 42.3279 -27.9209 -21
      vertex 42.575 -27.795 -22
      vertex 42.3279 -27.9209 -22
    endloop
  endfacet
  facet normal -0.54476 0.838592 0
    outer loop
      vertex 42.8076 -27.6439 -22
      vertex 42.575 -27.795 -21
      vertex 42.8076 -27.6439 -21
    endloop
  endfacet
  facet normal -0.54476 0.838592 0
    outer loop
      vertex 42.575 -27.795 -21
      vertex 42.8076 -27.6439 -22
      vertex 42.575 -27.795 -22
    endloop
  endfacet
  facet normal 0.987687 0.156444 0
    outer loop
      vertex 38.6579 -26.051 -21
      vertex 38.6145 -25.777 -22
      vertex 38.6145 -25.777 -21
    endloop
  endfacet
  facet normal 0.987687 0.156444 0
    outer loop
      vertex 38.6145 -25.777 -22
      vertex 38.6579 -26.051 -21
      vertex 38.6579 -26.051 -22
    endloop
  endfacet
  facet normal 1 -0 0
    outer loop
      vertex 38.6 -25.5 -21
      vertex 38.6 -10.5 -22
      vertex 38.6 -10.5 -21
    endloop
  endfacet
  facet normal 1 0 0
    outer loop
      vertex 38.6 -10.5 -22
      vertex 38.6 -25.5 -21
      vertex 38.6 -25.5 -22
    endloop
  endfacet
  facet normal -1 0 0
    outer loop
      vertex 43.9 -25.5 -22
      vertex 43.9 -10.5 -21
      vertex 43.9 -10.5 -22
    endloop
  endfacet
  facet normal -1 -0 0
    outer loop
      vertex 43.9 -10.5 -21
      vertex 43.9 -25.5 -22
      vertex 43.9 -25.5 -21
    endloop
  endfacet
endsolid OpenSCAD_Model
